<?xml version="1.0" encoding="UTF-8" standalone="no"?><!DOCTYPE svg PUBLIC "-//W3C//DTD SVG 1.1//EN" "http://www.w3.org/Graphics/SVG/1.1/DTD/svg11.dtd"><svg width="100%" height="100%" viewBox="0 0 145 137" version="1.1" xmlns="http://www.w3.org/2000/svg" xmlns:xlink="http://www.w3.org/1999/xlink" xml:space="preserve" xmlns:serif="http://www.serif.com/" style="fill-rule:evenodd;clip-rule:evenodd;stroke-miterlimit:1.41421;"><path d="M22.651,40.87c0,0 38.101,-25.649 59.178,-27.575l-1.059,-1.719c0,0 -20.058,1.889 -58.292,23.192l0.173,6.102Z" style="fill:#00a4bd;fill-rule:nonzero;"/><path d="M20.599,32.701c0,0 22.532,-16.87 62.325,-23.455l-0.017,-1.268c0,0 -24.674,0.448 -63.009,18.246l0.701,6.477Z" style="fill:#00a4bd;fill-rule:nonzero;"/><rect x="46.371" y="8.419" width="8.397" height="25.769" style="fill:#00a4bd;fill-rule:nonzero;"/><rect x="16.401" y="12.667" width="8.396" height="39.227" style="fill:#00a4bd;fill-rule:nonzero;"/><path d="M24.795,12.667c0,2.346 -1.88,4.247 -4.197,4.247c-2.318,0 -4.197,-1.901 -4.197,-4.247c0,-2.346 1.879,-4.247 4.197,-4.247c2.317,0 4.197,1.901 4.197,4.247Z" style="fill:#00a4bd;fill-rule:nonzero;"/><path d="M54.767,8.419c0,2.318 -1.88,4.197 -4.197,4.197c-2.318,0 -4.198,-1.879 -4.198,-4.197c0,-2.318 1.88,-4.196 4.198,-4.196c2.317,0 4.197,1.878 4.197,4.196Z" style="fill:#00a4bd;fill-rule:nonzero;"/><rect x="75.871" y="4.229" width="8.397" height="20.292" style="fill:#00a4bd;fill-rule:nonzero;"/><path d="M84.266,4.229c0,2.319 -1.879,4.197 -4.195,4.197c-2.321,0 -4.2,-1.878 -4.2,-4.197c0,-2.317 1.879,-4.197 4.2,-4.197c2.316,0 4.195,1.88 4.195,4.197Z" style="fill:#00a4bd;fill-rule:nonzero;"/><path d="M62.08,51.894l14.444,-0.504c0,0 30.242,-21.692 51.389,-26.434l0,-6.298l-42.915,2.333l-22.918,30.903Z" style="fill:#007289;fill-rule:nonzero;"/><path d="M62.938,51.894c0,0 27.502,-24.217 64.975,-33.236l-7.789,-4.69l-19.645,-1.352l-17.555,2.451c0,0 -15.513,-1.741 -67.109,35.896l47.123,0.931Z" style="fill:#00a4bd;fill-rule:nonzero;"/><rect x="64.006" y="12.597" width="8.397" height="38.366" style="fill:#007289;fill-rule:nonzero;"/><path d="M72.401,12.597c0,2.318 -1.879,4.196 -4.197,4.196c-2.319,0 -4.198,-1.878 -4.198,-4.196c0,-2.319 1.879,-4.198 4.198,-4.198c2.318,0 4.197,1.879 4.197,4.198Z" style="fill:#007289;fill-rule:nonzero;"/><rect x="93.51" y="8.399" width="8.397" height="25.77" style="fill:#007289;fill-rule:nonzero;"/><path d="M101.907,8.399c0,2.318 -1.879,4.198 -4.197,4.198c-2.319,0 -4.198,-1.88 -4.198,-4.198c0,-2.318 1.879,-4.197 4.198,-4.197c2.318,0 4.197,1.879 4.197,4.197Z" style="fill:#007289;fill-rule:nonzero;"/><rect x="119.516" y="4.197" width="8.397" height="20.292" style="fill:#007289;fill-rule:nonzero;"/><path d="M127.913,4.197c0,2.319 -1.879,4.197 -4.197,4.197c-2.319,0 -4.198,-1.878 -4.198,-4.197c0,-2.317 1.879,-4.197 4.198,-4.197c2.318,0 4.197,1.88 4.197,4.197Z" style="fill:#007289;fill-rule:nonzero;"/><path d="M66.053,41.982c0,0 38.436,-22.576 59.587,-23.324l-0.213,-3.032c0,0 -19.827,0.467 -59.188,19.605l-0.186,6.751Z" style="fill:#007289;fill-rule:nonzero;"/><path d="M64.006,32.963c0,0 23.791,-15.86 63.907,-20.058l0,-3.654c0,0 -26.977,0.235 -63.907,16.21l0,7.502Z" style="fill:#007289;fill-rule:nonzero;"/><path d="M61.214,124.801l-3.116,0l0,8.448l-1.279,0l0,-8.448l-3.078,0l0,-1.006l7.473,0l0,1.006Z" style="fill:#007289;fill-rule:nonzero;"/><path d="M63.662,127.165c0.243,-0.338 0.54,-0.601 0.893,-0.789c0.354,-0.189 0.744,-0.282 1.172,-0.282c0.748,0 1.332,0.225 1.75,0.674c0.418,0.451 0.627,1.144 0.627,2.08l0,4.401l-1.279,0l0,-4.416c0,-0.579 -0.125,-1.008 -0.373,-1.285c-0.25,-0.278 -0.622,-0.416 -1.114,-0.416c-0.381,0 -0.713,0.075 -0.994,0.224c-0.281,0.15 -0.508,0.359 -0.682,0.626l0,5.267l-1.279,0l0,-10.13l1.279,0l0,4.046Z" style="fill:#007289;fill-rule:nonzero;"/><path d="M72.649,127.1c-0.445,0 -0.815,0.171 -1.108,0.516c-0.291,0.344 -0.47,0.784 -0.535,1.321l0.014,0.033l3.168,0l0,-0.104c0,-0.511 -0.125,-0.932 -0.377,-1.266c-0.25,-0.333 -0.637,-0.5 -1.162,-0.5Zm0.201,6.286c-1.008,0 -1.795,-0.323 -2.359,-0.968c-0.565,-0.645 -0.848,-1.493 -0.848,-2.545l0,-0.286c0,-1.009 0.291,-1.844 0.873,-2.503c0.582,-0.66 1.293,-0.99 2.133,-0.99c0.939,0 1.644,0.291 2.115,0.876c0.469,0.585 0.703,1.361 0.703,2.332l0,0.674l-4.492,0l-0.02,0.034c0,0.705 0.155,1.277 0.467,1.716c0.313,0.44 0.787,0.66 1.428,0.66c0.434,0 0.812,-0.063 1.141,-0.186c0.326,-0.123 0.607,-0.293 0.839,-0.509l0.502,0.831c-0.252,0.243 -0.584,0.447 -0.994,0.614c-0.412,0.167 -0.908,0.25 -1.488,0.25Z" style="fill:#007289;fill-rule:nonzero;"/><path d="M80.227,127.352l-0.654,-0.038c-0.338,0 -0.623,0.08 -0.856,0.241c-0.23,0.16 -0.41,0.385 -0.535,0.675l0,5.019l-1.279,0l0,-7.025l1.142,0l0.123,1.025c0.2,-0.363 0.446,-0.648 0.739,-0.851c0.291,-0.203 0.627,-0.304 1.007,-0.304c0.096,0 0.188,0.007 0.274,0.022c0.088,0.015 0.158,0.031 0.215,0.049l-0.176,1.187Z" style="fill:#007289;fill-rule:nonzero;"/><path d="M83.754,132.313c0.463,0 0.881,-0.118 1.252,-0.356c0.373,-0.237 0.615,-0.511 0.727,-0.818l0,-1.143l-1.434,0c-0.515,0 -0.928,0.13 -1.236,0.39c-0.311,0.259 -0.465,0.565 -0.465,0.915c0,0.312 0.098,0.558 0.291,0.74c0.195,0.183 0.482,0.272 0.865,0.272Zm2.123,0.936c-0.045,-0.212 -0.078,-0.399 -0.101,-0.562c-0.024,-0.162 -0.037,-0.325 -0.043,-0.49c-0.237,0.337 -0.549,0.619 -0.932,0.848c-0.383,0.227 -0.795,0.341 -1.236,0.341c-0.733,0 -1.289,-0.188 -1.672,-0.562c-0.383,-0.375 -0.574,-0.89 -0.574,-1.549c0,-0.671 0.271,-1.195 0.814,-1.574c0.543,-0.379 1.281,-0.569 2.211,-0.569l1.389,0l0,-0.695c0,-0.411 -0.125,-0.736 -0.375,-0.977c-0.252,-0.24 -0.608,-0.36 -1.065,-0.36c-0.416,0 -0.752,0.104 -1.007,0.312c-0.256,0.207 -0.383,0.456 -0.383,0.746l-1.215,0.014l-0.012,-0.039c-0.031,-0.512 0.207,-0.979 0.717,-1.404c0.508,-0.423 1.166,-0.635 1.971,-0.635c0.797,0 1.437,0.202 1.922,0.606c0.484,0.405 0.726,0.988 0.726,1.75l0,3.383c0,0.252 0.014,0.494 0.039,0.727c0.028,0.235 0.074,0.464 0.143,0.689l-1.317,0Z" style="fill:#007289;fill-rule:nonzero;"/><path d="M93.579,129.865c0,-0.796 -0.159,-1.451 -0.471,-1.964c-0.315,-0.512 -0.778,-0.769 -1.387,-0.769c-0.369,0 -0.682,0.084 -0.941,0.25c-0.26,0.167 -0.471,0.395 -0.631,0.685l0,3.397c0.16,0.29 0.371,0.515 0.631,0.678c0.259,0.162 0.578,0.244 0.953,0.244c0.605,0 1.066,-0.222 1.377,-0.665c0.312,-0.444 0.469,-1.017 0.469,-1.718l0,-0.138Zm1.279,0.138c0,1.013 -0.242,1.829 -0.729,2.451c-0.484,0.621 -1.152,0.932 -2.006,0.932c-0.431,0 -0.812,-0.074 -1.14,-0.218c-0.326,-0.145 -0.604,-0.362 -0.834,-0.652l0,3.434l-1.279,0l0,-9.726l0.98,0l0.201,0.908c0.231,-0.337 0.516,-0.595 0.858,-0.773c0.341,-0.176 0.74,-0.265 1.195,-0.265c0.869,0 1.547,0.344 2.029,1.036c0.483,0.689 0.725,1.602 0.725,2.735l0,0.138Z" style="fill:#007289;fill-rule:nonzero;"/><path d="M98.507,130.645l0.226,0.883l0.039,0l1.729,-5.304l1.422,0l-2.955,8.103c-0.178,0.472 -0.432,0.884 -0.764,1.234c-0.33,0.351 -0.777,0.526 -1.34,0.526c-0.105,0 -0.236,-0.012 -0.396,-0.036c-0.16,-0.024 -0.284,-0.046 -0.371,-0.069l0.13,-1.006c-0.025,-0.004 0.051,0 0.231,0.013c0.18,0.014 0.293,0.02 0.34,0.02c0.273,0 0.496,-0.121 0.67,-0.364c0.173,-0.242 0.318,-0.511 0.435,-0.805l0.305,-0.734l-2.612,-6.882l1.43,0l1.481,4.421Z" style="fill:#007289;fill-rule:nonzero;"/><path d="M113.274,130.224l0.012,0.038c0.018,0.887 -0.293,1.63 -0.936,2.227c-0.64,0.598 -1.486,0.897 -2.539,0.897c-1.068,0 -1.939,-0.379 -2.613,-1.136c-0.672,-0.759 -1.01,-1.719 -1.01,-2.884l0,-1.682c0,-1.165 0.338,-2.126 1.01,-2.886c0.674,-0.76 1.545,-1.139 2.613,-1.139c1.071,0 1.92,0.284 2.553,0.854c0.633,0.568 0.94,1.323 0.922,2.262l-0.012,0.039l-1.228,0c0,-0.662 -0.196,-1.186 -0.584,-1.572c-0.391,-0.385 -0.94,-0.577 -1.651,-0.577c-0.712,0 -1.283,0.288 -1.707,0.863c-0.423,0.575 -0.636,1.29 -0.636,2.143l0,1.695c0,0.861 0.213,1.58 0.636,2.155c0.424,0.577 0.995,0.865 1.707,0.865c0.711,0 1.26,-0.193 1.651,-0.576c0.388,-0.382 0.584,-0.912 0.584,-1.586l1.228,0Z" style="fill:#007289;fill-rule:nonzero;"/><path d="M117.481,127.1c-0.445,0 -0.816,0.171 -1.107,0.516c-0.293,0.344 -0.471,0.784 -0.535,1.321l0.011,0.033l3.17,0l0,-0.104c0,-0.511 -0.127,-0.932 -0.377,-1.266c-0.252,-0.333 -0.638,-0.5 -1.162,-0.5Zm0.202,6.286c-1.008,0 -1.795,-0.323 -2.362,-0.968c-0.564,-0.645 -0.847,-1.493 -0.847,-2.545l0,-0.286c0,-1.009 0.291,-1.844 0.875,-2.503c0.582,-0.66 1.292,-0.99 2.132,-0.99c0.94,0 1.643,0.291 2.114,0.876c0.47,0.585 0.705,1.361 0.705,2.332l0,0.674l-4.494,0l-0.02,0.034c0,0.705 0.156,1.277 0.467,1.716c0.312,0.44 0.789,0.66 1.43,0.66c0.431,0 0.812,-0.063 1.14,-0.186c0.326,-0.123 0.606,-0.293 0.84,-0.509l0.5,0.831c-0.252,0.243 -0.582,0.447 -0.994,0.614c-0.41,0.167 -0.906,0.25 -1.486,0.25Z" style="fill:#007289;fill-rule:nonzero;"/><path d="M122.878,126.224l0.09,1.044c0.234,-0.372 0.527,-0.661 0.879,-0.867c0.353,-0.205 0.753,-0.307 1.205,-0.307c0.757,0 1.343,0.221 1.759,0.665c0.416,0.444 0.623,1.129 0.623,2.055l0,4.435l-1.277,0l0,-4.409c0,-0.619 -0.123,-1.059 -0.367,-1.318c-0.246,-0.26 -0.619,-0.39 -1.121,-0.39c-0.395,0 -0.729,0.079 -1.004,0.237c-0.274,0.158 -0.492,0.38 -0.652,0.666l0,5.214l-1.28,0l0,-7.025l1.145,0Z" style="fill:#007289;fill-rule:nonzero;"/><path d="M131.071,124.528l0,1.696l1.332,0l0,0.947l-1.332,0l0,4.266c0,0.33 0.069,0.561 0.205,0.696c0.137,0.134 0.317,0.2 0.543,0.2c0.072,0 0.155,-0.01 0.246,-0.029c0.09,-0.019 0.166,-0.04 0.227,-0.061l0.176,0.876c-0.096,0.078 -0.237,0.142 -0.422,0.191c-0.186,0.05 -0.371,0.076 -0.553,0.076c-0.519,0 -0.932,-0.158 -1.24,-0.471c-0.307,-0.314 -0.461,-0.807 -0.461,-1.478l0,-4.266l-1.117,0l0,-0.947l1.117,0l0,-1.696l1.279,0Z" style="fill:#007289;fill-rule:nonzero;"/><path d="M137.099,127.352l-0.657,-0.038c-0.338,0 -0.623,0.08 -0.855,0.241c-0.231,0.16 -0.408,0.385 -0.535,0.675l0,5.019l-1.28,0l0,-7.025l1.143,0l0.125,1.025c0.199,-0.363 0.443,-0.648 0.736,-0.851c0.291,-0.203 0.629,-0.304 1.01,-0.304c0.094,0 0.186,0.007 0.272,0.022c0.087,0.015 0.158,0.031 0.214,0.049l-0.173,1.187Z" style="fill:#007289;fill-rule:nonzero;"/><path d="M141.013,127.1c-0.446,0 -0.815,0.171 -1.108,0.516c-0.291,0.344 -0.471,0.784 -0.535,1.321l0.014,0.033l3.168,0l0,-0.104c0,-0.511 -0.125,-0.932 -0.375,-1.266c-0.252,-0.333 -0.639,-0.5 -1.164,-0.5Zm0.201,6.286c-1.008,0 -1.795,-0.323 -2.36,-0.968c-0.564,-0.645 -0.847,-1.493 -0.847,-2.545l0,-0.286c0,-1.009 0.291,-1.844 0.873,-2.503c0.582,-0.66 1.293,-0.99 2.133,-0.99c0.939,0 1.644,0.291 2.115,0.876c0.469,0.585 0.703,1.361 0.703,2.332l0,0.674l-4.492,0l-0.02,0.034c0,0.705 0.156,1.277 0.467,1.716c0.313,0.44 0.787,0.66 1.428,0.66c0.433,0 0.812,-0.063 1.14,-0.186c0.327,-0.123 0.606,-0.293 0.842,-0.509l0.5,0.831c-0.252,0.243 -0.584,0.447 -0.994,0.614c-0.412,0.167 -0.908,0.25 -1.488,0.25Z" style="fill:#007289;fill-rule:nonzero;"/><path d="M4.072,109.579c-0.87,0 -1.468,-0.171 -1.796,-0.515c-0.328,-0.342 -0.491,-0.933 -0.491,-1.772l0,-8.461l-1.533,0l0,-1.189l0.183,0c0.335,0 0.602,-0.023 0.801,-0.068c0.198,-0.047 0.358,-0.111 0.48,-0.195c0.121,-0.083 0.214,-0.19 0.275,-0.32c0.06,-0.129 0.115,-0.278 0.16,-0.446l0.571,-2.035l1.099,0l0,3.064l3.086,0l0,1.189l-3.086,0l0,9.422l3.086,0l0,0.8c-0.26,0.153 -0.659,0.279 -1.201,0.377c-0.542,0.099 -1.086,0.149 -1.634,0.149Z" style="fill:#007289;fill-rule:nonzero;"/><path d="M8.37,108.345l1.714,0l0,-14.659l-1.714,-0.32l0,-0.824l3.75,-0.708l0,7.569l0.092,0c0.092,-0.229 0.232,-0.465 0.423,-0.709c0.191,-0.244 0.426,-0.465 0.709,-0.663c0.281,-0.198 0.613,-0.358 0.994,-0.48c0.381,-0.122 0.809,-0.183 1.282,-0.183c1.463,0 2.507,0.37 3.132,1.108c0.625,0.741 0.938,1.849 0.938,3.329l0,6.54l1.715,0l0,1.097l-5.465,0l0,-1.097l1.715,0l0,-6.38c0,-1.083 -0.222,-1.892 -0.663,-2.424c-0.443,-0.534 -1.144,-0.801 -2.105,-0.801c-0.335,0 -0.666,0.046 -0.994,0.137c-0.328,0.092 -0.625,0.233 -0.893,0.424c-0.266,0.189 -0.478,0.426 -0.639,0.708c-0.16,0.282 -0.241,0.614 -0.241,0.995l0,7.341l1.716,0l0,1.097l-5.466,0l0,-1.097Z" style="fill:#007289;fill-rule:nonzero;"/><path d="M25.497,102.398l6.084,0l0,-0.251c0,-0.518 -0.057,-0.998 -0.17,-1.441c-0.116,-0.441 -0.291,-0.826 -0.528,-1.154c-0.236,-0.328 -0.541,-0.583 -0.914,-0.766c-0.373,-0.184 -0.82,-0.274 -1.338,-0.274c-0.518,0 -0.972,0.087 -1.361,0.262c-0.388,0.176 -0.717,0.423 -0.983,0.743c-0.267,0.321 -0.464,0.698 -0.594,1.131c-0.13,0.436 -0.196,0.912 -0.196,1.43l0,0.32Zm3.248,7.319c-0.869,0 -1.647,-0.15 -2.333,-0.447c-0.685,-0.297 -1.264,-0.716 -1.737,-1.257c-0.473,-0.541 -0.831,-1.193 -1.075,-1.955c-0.244,-0.762 -0.366,-1.601 -0.366,-2.516c0,-0.915 0.137,-1.749 0.413,-2.504c0.273,-0.755 0.65,-1.406 1.131,-1.955c0.48,-0.549 1.049,-0.972 1.703,-1.269c0.656,-0.297 1.373,-0.446 2.15,-0.446c0.793,0 1.506,0.137 2.139,0.411c0.633,0.275 1.166,0.66 1.6,1.155c0.435,0.496 0.769,1.086 1.006,1.772c0.236,0.686 0.355,1.434 0.355,2.241l0,0.55l-8.234,0l0,0.571c0,1.266 0.326,2.264 0.972,2.995c0.649,0.733 1.514,1.098 2.597,1.098c0.96,0 1.721,-0.19 2.286,-0.571c0.563,-0.381 1.006,-0.884 1.327,-1.51l0.801,0.503c-0.153,0.412 -0.363,0.805 -0.63,1.179c-0.267,0.373 -0.598,0.705 -0.994,0.994c-0.398,0.29 -0.855,0.522 -1.373,0.698c-0.518,0.174 -1.098,0.263 -1.738,0.263Z" style="fill:#007289;fill-rule:nonzero;"/><path d="M6.963,82.487l4.953,0c1.317,0 2.339,-0.343 3.067,-1.031c0.726,-0.688 1.091,-1.616 1.091,-2.785l0,-1.581c0,-1.17 -0.365,-2.098 -1.091,-2.785c-0.728,-0.688 -1.75,-1.033 -3.067,-1.033l-4.953,0l0,9.215Zm0,-11.293l4.366,0c1.222,0 2.158,-0.311 2.804,-0.934c0.647,-0.624 0.971,-1.49 0.971,-2.599l0,-1.524c0,-1.109 -0.324,-1.974 -0.971,-2.598c-0.646,-0.624 -1.582,-0.935 -2.804,-0.935l-4.366,0l0,8.59Zm-6.963,11.501l2.565,0l0,-20.3l-2.565,0l0,-1.939l12.263,0c2.448,0 4.296,0.533 5.543,1.598c1.247,1.066 1.87,2.444 1.87,4.134c0,0.859 -0.139,1.617 -0.416,2.277c-0.276,0.661 -0.652,1.221 -1.125,1.684c-0.474,0.464 -1.012,0.841 -1.611,1.13c-0.601,0.29 -1.212,0.492 -1.836,0.608l0,0.172c0.646,0.07 1.322,0.231 2.027,0.485c0.703,0.253 1.351,0.622 1.94,1.105c0.589,0.485 1.067,1.077 1.437,1.78c0.369,0.702 0.555,1.537 0.555,2.505c0,2.095 -0.664,3.736 -1.992,4.922c-1.328,1.186 -3.147,1.779 -5.456,1.779l-13.199,0l0,-1.94Z" style="fill:#007289;fill-rule:nonzero;"/><path d="M24.284,82.695l2.562,0l0,-20.3l-2.562,0l0,-1.939l19.017,0l0,6.166l-3.361,0l0,-4.018l-8.694,0l0,8.417l5.786,0l0,-2.424l2.423,0l0,6.997l-2.423,0l0,-2.425l-5.786,0l0,9.318l9.041,0l0,-4.503l3.36,0l0,6.651l-19.363,0l0,-1.94Z" style="fill:#007289;fill-rule:nonzero;"/><path d="M51.441,82.695l2.909,0l0,-7.759l-6.857,-12.541l-1.802,0l0,-1.939l9.456,0l0,1.939l-2.84,0l5.23,9.873l0.139,0l5.266,-9.873l-2.841,0l0,-1.939l7.31,0l0,1.939l-1.803,0l-6.858,12.09l0,8.21l2.911,0l0,1.94l-10.22,0l0,-1.94Z" style="fill:#007289;fill-rule:nonzero;"/><path d="M79.985,82.834c1.963,0 3.515,-0.647 4.658,-1.941c1.143,-1.293 1.715,-3.093 1.715,-5.403l0,-5.889c0,-2.309 -0.572,-4.111 -1.715,-5.404c-1.143,-1.293 -2.695,-1.939 -4.658,-1.939c-1.963,0 -3.516,0.646 -4.66,1.939c-1.143,1.293 -1.715,3.095 -1.715,5.404l0,5.889c0,2.31 0.572,4.11 1.715,5.403c1.144,1.294 2.697,1.941 4.66,1.941Zm0,2.218c-1.641,0 -3.153,-0.285 -4.539,-0.851c-1.385,-0.564 -2.575,-1.385 -3.569,-2.459c-0.992,-1.073 -1.765,-2.384 -2.32,-3.932c-0.553,-1.546 -0.83,-3.301 -0.83,-5.264c0,-1.962 0.277,-3.718 0.83,-5.266c0.555,-1.547 1.328,-2.858 2.32,-3.931c0.994,-1.075 2.184,-1.894 3.569,-2.46c1.386,-0.566 2.898,-0.849 4.539,-0.849c1.638,0 3.152,0.283 4.537,0.849c1.385,0.566 2.576,1.385 3.568,2.46c0.992,1.073 1.766,2.384 2.321,3.931c0.554,1.548 0.832,3.304 0.832,5.266c0,1.963 -0.278,3.718 -0.832,5.264c-0.555,1.548 -1.329,2.859 -2.321,3.932c-0.992,1.074 -2.183,1.895 -3.568,2.459c-1.385,0.566 -2.899,0.851 -4.537,0.851Z" style="fill:#007289;fill-rule:nonzero;"/><path d="M94.707,82.695l2.563,0l0,-20.3l-2.563,0l0,-1.939l7.726,0l11.742,18.221l0.174,0l0,-16.282l-2.565,0l0,-1.939l7.482,0l0,1.939l-2.562,0l0,22.24l-3.742,0l-13.164,-20.368l-0.172,0l0,18.428l2.562,0l0,1.94l-7.481,0l0,-1.94Z" style="fill:#007289;fill-rule:nonzero;"/><path d="M129.417,82.487l3.289,0c2.379,0 4.174,-0.617 5.389,-1.853c1.213,-1.235 1.816,-3.053 1.816,-5.456l0,-5.266c0,-2.4 -0.603,-4.22 -1.816,-5.455c-1.215,-1.235 -3.01,-1.853 -5.389,-1.853l-3.289,0l0,19.883Zm-6.963,0.208l2.562,0l0,-20.3l-2.562,0l0,-1.939l10.912,0c1.662,0 3.192,0.26 4.59,0.779c1.396,0.52 2.602,1.288 3.619,2.304c1.016,1.017 1.807,2.281 2.373,3.793c0.567,1.513 0.85,3.252 0.85,5.214c0,1.986 -0.283,3.729 -0.85,5.23c-0.566,1.501 -1.357,2.76 -2.373,3.776c-1.017,1.016 -2.223,1.784 -3.619,2.303c-1.398,0.52 -2.928,0.78 -4.59,0.78l-10.912,0l0,-1.94Z" style="fill:#007289;fill-rule:nonzero;"/><path d="M40.752,108.091l4.904,0c1.115,0 1.989,-0.318 2.625,-0.952c0.633,-0.635 0.951,-1.461 0.951,-2.48l0,-1.269c0,-1.019 -0.318,-1.846 -0.951,-2.481c-0.636,-0.635 -1.51,-0.951 -2.625,-0.951l-4.904,0l0,8.133Zm0,-9.633l4.442,0c1.019,0 1.818,-0.293 2.394,-0.88c0.576,-0.586 0.866,-1.341 0.866,-2.264l0,-1.212c0,-0.922 -0.29,-1.676 -0.866,-2.263c-0.576,-0.587 -1.375,-0.88 -2.394,-0.88l-4.442,0l0,7.499Zm-4.902,9.748l2.191,0l0,-17.363l-2.191,0l0,-1.384l9.893,0c1.73,0 3.089,0.437 4.08,1.312c0.99,0.875 1.486,2.024 1.486,3.447c0,0.711 -0.111,1.351 -0.332,1.918c-0.221,0.567 -0.52,1.053 -0.895,1.457c-0.374,0.403 -0.796,0.725 -1.267,0.966c-0.473,0.241 -0.948,0.398 -1.429,0.475l0,0.116c0.5,0.038 1.028,0.159 1.586,0.36c0.558,0.202 1.067,0.506 1.529,0.909c0.462,0.403 0.841,0.899 1.14,1.485c0.297,0.587 0.446,1.283 0.446,2.091c0,0.847 -0.134,1.615 -0.403,2.308c-0.27,0.692 -0.649,1.283 -1.139,1.773c-0.49,0.49 -1.068,0.866 -1.73,1.125c-0.664,0.26 -1.381,0.39 -2.151,0.39l-10.814,0l0,-1.385Z" style="fill:#00a4bd;fill-rule:nonzero;"/><path d="M40.752,108.091l4.904,0c1.115,0 1.989,-0.318 2.625,-0.952c0.633,-0.635 0.951,-1.461 0.951,-2.48l0,-1.269c0,-1.019 -0.318,-1.846 -0.951,-2.481c-0.636,-0.635 -1.51,-0.951 -2.625,-0.951l-4.904,0l0,8.133Zm0,-9.633l4.442,0c1.019,0 1.818,-0.293 2.394,-0.88c0.576,-0.586 0.866,-1.341 0.866,-2.264l0,-1.212c0,-0.922 -0.29,-1.676 -0.866,-2.263c-0.576,-0.587 -1.375,-0.88 -2.394,-0.88l-4.442,0l0,7.499Zm-4.902,9.748l2.191,0l0,-17.363l-2.191,0l0,-1.384l9.893,0c1.73,0 3.089,0.437 4.08,1.312c0.99,0.875 1.486,2.024 1.486,3.447c0,0.711 -0.111,1.351 -0.332,1.918c-0.221,0.567 -0.52,1.053 -0.895,1.457c-0.374,0.403 -0.796,0.725 -1.267,0.966c-0.473,0.241 -0.948,0.398 -1.429,0.475l0,0.116c0.5,0.038 1.028,0.159 1.586,0.36c0.558,0.202 1.067,0.506 1.529,0.909c0.462,0.403 0.841,0.899 1.14,1.485c0.297,0.587 0.446,1.283 0.446,2.091c0,0.847 -0.134,1.615 -0.403,2.308c-0.27,0.692 -0.649,1.283 -1.139,1.773c-0.49,0.49 -1.068,0.866 -1.73,1.125c-0.664,0.26 -1.381,0.39 -2.151,0.39l-10.814,0l0,-1.385Z" style="fill:none;stroke:#00a4bd;stroke-width:0.53px;"/><path d="M60.509,98.861l4.499,0c1.02,0 1.807,-0.312 2.365,-0.937c0.557,-0.625 0.836,-1.399 0.836,-2.322l0,-1.384c0,-0.923 -0.279,-1.697 -0.836,-2.322c-0.558,-0.625 -1.345,-0.937 -2.365,-0.937l-4.499,0l0,7.902Zm-4.903,9.345l2.191,0l0,-17.363l-2.191,0l0,-1.384l9.662,0c1.826,0 3.248,0.442 4.268,1.326c1.019,0.885 1.529,2.222 1.529,4.01c0,1.346 -0.379,2.475 -1.141,3.389c-0.758,0.913 -1.877,1.513 -3.359,1.802l3.404,6.172c0.383,0.712 0.826,1.231 1.326,1.558c0.5,0.327 1.116,0.49 1.846,0.49l0.232,0l0,1.385l-1.962,0c-0.577,0 -1.063,-0.053 -1.457,-0.159c-0.395,-0.106 -0.739,-0.269 -1.038,-0.49c-0.298,-0.221 -0.562,-0.495 -0.793,-0.823c-0.23,-0.326 -0.461,-0.711 -0.691,-1.153l-3.607,-6.605l-3.316,0l0,7.845l2.193,0l0,1.385l-7.096,0l0,-1.385Z" style="fill:#00a4bd;fill-rule:nonzero;"/><path d="M60.509,98.861l4.499,0c1.02,0 1.807,-0.312 2.365,-0.937c0.557,-0.625 0.836,-1.399 0.836,-2.322l0,-1.384c0,-0.923 -0.279,-1.697 -0.836,-2.322c-0.558,-0.625 -1.345,-0.937 -2.365,-0.937l-4.499,0l0,7.902Zm-4.903,9.345l2.191,0l0,-17.363l-2.191,0l0,-1.384l9.662,0c1.826,0 3.248,0.442 4.268,1.326c1.019,0.885 1.529,2.222 1.529,4.01c0,1.346 -0.379,2.475 -1.141,3.389c-0.758,0.913 -1.877,1.513 -3.359,1.802l3.404,6.172c0.383,0.712 0.826,1.231 1.326,1.558c0.5,0.327 1.116,0.49 1.846,0.49l0.232,0l0,1.385l-1.962,0c-0.577,0 -1.063,-0.053 -1.457,-0.159c-0.395,-0.106 -0.739,-0.269 -1.038,-0.49c-0.298,-0.221 -0.562,-0.495 -0.793,-0.823c-0.23,-0.326 -0.461,-0.711 -0.691,-1.153l-3.607,-6.605l-3.316,0l0,7.845l2.193,0l0,1.385l-7.096,0l0,-1.385Z" style="fill:none;stroke:#00a4bd;stroke-width:0.53px;"/><path d="M75.448,108.206l2.193,0l0,-17.363l-2.193,0l0,-1.384l7.095,0l0,1.384l-2.191,0l0,17.363l2.191,0l0,1.385l-7.095,0l0,-1.385Z" style="fill:#00a4bd;fill-rule:nonzero;"/><path d="M75.448,108.206l2.193,0l0,-17.363l-2.193,0l0,-1.384l7.095,0l0,1.384l-2.191,0l0,17.363l2.191,0l0,1.385l-7.095,0l0,-1.385Z" style="fill:none;stroke:#00a4bd;stroke-width:0.53px;"/><path d="M90.62,108.091l3.488,0c0.98,0 1.866,-0.163 2.655,-0.491c0.787,-0.327 1.464,-0.788 2.033,-1.384c0.566,-0.596 1,-1.307 1.297,-2.134c0.298,-0.827 0.447,-1.75 0.447,-2.769l0,-3.576c0,-1.001 -0.149,-1.919 -0.447,-2.755c-0.297,-0.837 -0.731,-1.552 -1.297,-2.149c-0.569,-0.595 -1.246,-1.057 -2.033,-1.385c-0.789,-0.326 -1.675,-0.489 -2.655,-0.489l-3.488,0l0,17.132Zm-4.905,0.115l2.192,0l0,-17.363l-2.192,0l0,-1.384l8.682,0c1.346,0 2.582,0.207 3.707,0.62c1.123,0.414 2.09,1.039 2.897,1.874c0.808,0.837 1.437,1.885 1.89,3.145c0.452,1.259 0.678,2.735 0.678,4.426c0,1.693 -0.226,3.168 -0.678,4.428c-0.453,1.259 -1.082,2.307 -1.89,3.144c-0.807,0.836 -1.774,1.461 -2.897,1.874c-1.125,0.414 -2.361,0.621 -3.707,0.621l-8.682,0l0,-1.385Z" style="fill:#00a4bd;fill-rule:nonzero;"/><path d="M90.62,108.091l3.488,0c0.98,0 1.866,-0.163 2.655,-0.491c0.787,-0.327 1.464,-0.788 2.033,-1.384c0.566,-0.596 1,-1.307 1.297,-2.134c0.298,-0.827 0.447,-1.75 0.447,-2.769l0,-3.576c0,-1.001 -0.149,-1.919 -0.447,-2.755c-0.297,-0.837 -0.731,-1.552 -1.297,-2.149c-0.569,-0.595 -1.246,-1.057 -2.033,-1.385c-0.789,-0.326 -1.675,-0.489 -2.655,-0.489l-3.488,0l0,17.132Zm-4.905,0.115l2.192,0l0,-17.363l-2.192,0l0,-1.384l8.682,0c1.346,0 2.582,0.207 3.707,0.62c1.123,0.414 2.09,1.039 2.897,1.874c0.808,0.837 1.437,1.885 1.89,3.145c0.452,1.259 0.678,2.735 0.678,4.426c0,1.693 -0.226,3.168 -0.678,4.428c-0.453,1.259 -1.082,2.307 -1.89,3.144c-0.807,0.836 -1.774,1.461 -2.897,1.874c-1.125,0.414 -2.361,0.621 -3.707,0.621l-8.682,0l0,-1.385Z" style="fill:none;stroke:#00a4bd;stroke-width:0.53px;"/><path d="M115.308,109.936c-1.29,0 -2.458,-0.241 -3.504,-0.721c-1.049,-0.48 -1.948,-1.168 -2.698,-2.062c-0.75,-0.894 -1.332,-1.984 -1.744,-3.273c-0.414,-1.288 -0.621,-2.74 -0.621,-4.356c0,-1.673 0.207,-3.157 0.621,-4.456c0.412,-1.297 1.004,-2.384 1.774,-3.259c0.767,-0.874 1.695,-1.542 2.783,-2.003c1.086,-0.462 2.301,-0.694 3.648,-0.694c1.576,0 2.791,0.212 3.649,0.635c0.853,0.423 1.408,0.924 1.658,1.5l0.144,0l0,-1.788l2.221,0l0,5.884l-2.221,0l0,-1.356c0,-1.077 -0.453,-1.889 -1.355,-2.436c-0.904,-0.549 -2.145,-0.823 -3.721,-0.823c-1.078,0 -2,0.164 -2.769,0.491c-0.77,0.326 -1.408,0.793 -1.918,1.398c-0.51,0.607 -0.885,1.328 -1.125,2.163c-0.24,0.836 -0.36,1.756 -0.36,2.754l0,3.923c0,1 0.139,1.914 0.418,2.74c0.278,0.826 0.674,1.533 1.182,2.119c0.51,0.587 1.125,1.039 1.846,1.357c0.72,0.317 1.523,0.475 2.408,0.475c0.75,0 1.437,-0.09 2.062,-0.274c0.625,-0.182 1.168,-0.456 1.629,-0.821c0.463,-0.366 0.823,-0.808 1.082,-1.328c0.26,-0.518 0.391,-1.124 0.391,-1.817l0,-2.682l-3.607,0l0,-1.384l8.162,0l0,1.384l-1.844,0l0,8.365l-1.01,0l-1.529,-2.741l-0.115,0c-0.155,0.366 -0.379,0.732 -0.678,1.096c-0.299,0.366 -0.678,0.697 -1.139,0.996c-0.461,0.298 -1,0.537 -1.615,0.72c-0.615,0.183 -1.316,0.274 -2.105,0.274Z" style="fill:#00a4bd;fill-rule:nonzero;"/><path d="M115.308,109.936c-1.29,0 -2.458,-0.241 -3.504,-0.721c-1.049,-0.48 -1.948,-1.168 -2.698,-2.062c-0.75,-0.894 -1.332,-1.984 -1.744,-3.273c-0.414,-1.288 -0.621,-2.74 -0.621,-4.356c0,-1.673 0.207,-3.157 0.621,-4.456c0.412,-1.297 1.004,-2.384 1.774,-3.259c0.767,-0.874 1.695,-1.542 2.783,-2.003c1.086,-0.462 2.301,-0.694 3.648,-0.694c1.576,0 2.791,0.212 3.649,0.635c0.853,0.423 1.408,0.924 1.658,1.5l0.144,0l0,-1.788l2.221,0l0,5.884l-2.221,0l0,-1.356c0,-1.077 -0.453,-1.889 -1.355,-2.436c-0.904,-0.549 -2.145,-0.823 -3.721,-0.823c-1.078,0 -2,0.164 -2.769,0.491c-0.77,0.326 -1.408,0.793 -1.918,1.398c-0.51,0.607 -0.885,1.328 -1.125,2.163c-0.24,0.836 -0.36,1.756 -0.36,2.754l0,3.923c0,1 0.139,1.914 0.418,2.74c0.278,0.826 0.674,1.533 1.182,2.119c0.51,0.587 1.125,1.039 1.846,1.357c0.72,0.317 1.523,0.475 2.408,0.475c0.75,0 1.437,-0.09 2.062,-0.274c0.625,-0.182 1.168,-0.456 1.629,-0.821c0.463,-0.366 0.823,-0.808 1.082,-1.328c0.26,-0.518 0.391,-1.124 0.391,-1.817l0,-2.682l-3.607,0l0,-1.384l8.162,0l0,1.384l-1.844,0l0,8.365l-1.01,0l-1.529,-2.741l-0.115,0c-0.155,0.366 -0.379,0.732 -0.678,1.096c-0.299,0.366 -0.678,0.697 -1.139,0.996c-0.461,0.298 -1,0.537 -1.615,0.72c-0.615,0.183 -1.316,0.274 -2.105,0.274Z" style="fill:none;stroke:#00a4bd;stroke-width:0.53px;"/><path d="M128.083,108.206l2.191,0l0,-17.363l-2.191,0l0,-1.384l15.373,0l0,4.903l-2.221,0l0,-3.403l-8.248,0l0,7.527l5.682,0l0,-2.307l1.846,0l0,6.115l-1.846,0l0,-2.308l-5.682,0l0,8.105l8.537,0l0,-3.693l2.221,0l0,5.193l-15.662,0l0,-1.385Z" style="fill:#00a4bd;fill-rule:nonzero;"/><path d="M128.083,108.206l2.191,0l0,-17.363l-2.191,0l0,-1.384l15.373,0l0,4.903l-2.221,0l0,-3.403l-8.248,0l0,7.527l5.682,0l0,-2.307l1.846,0l0,6.115l-1.846,0l0,-2.308l-5.682,0l0,8.105l8.537,0l0,-3.693l2.221,0l0,5.193l-15.662,0l0,-1.385Z" style="fill:none;stroke:#00a4bd;stroke-width:0.53px;"/><rect x="0" y="50.865" width="143.761" height="2.975" style="fill:#00a4bd;fill-rule:nonzero;"/><rect x="0.042" y="116.09" width="143.76" height="2.974" style="fill:#00a4bd;fill-rule:nonzero;"/></svg>