<?xml version="1.0" encoding="UTF-8" standalone="no"?><!DOCTYPE svg PUBLIC "-//W3C//DTD SVG 1.1//EN" "http://www.w3.org/Graphics/SVG/1.1/DTD/svg11.dtd"><svg width="100%" height="100%" viewBox="0 0 145 137" version="1.1" xmlns="http://www.w3.org/2000/svg" xmlns:xlink="http://www.w3.org/1999/xlink" xml:space="preserve" xmlns:serif="http://www.serif.com/" style="fill-rule:evenodd;clip-rule:evenodd;stroke-miterlimit:1.41421;"><path d="M22.651,40.87c0,0 38.101,-25.65 59.178,-27.575l-1.059,-1.719c0,0 -20.058,1.889 -58.292,23.192l0.173,6.102Z" style="fill:#fff;fill-rule:nonzero;"/><path d="M20.599,32.701c0,0 22.532,-16.87 62.326,-23.455l-0.018,-1.268c0,0 -24.674,0.448 -63.009,18.245l0.701,6.478Z" style="fill:#fff;fill-rule:nonzero;"/><rect x="46.371" y="8.419" width="8.397" height="25.769" style="fill:#fff;fill-rule:nonzero;"/><rect x="16.401" y="12.667" width="8.396" height="39.227" style="fill:#fff;fill-rule:nonzero;"/><path d="M24.795,12.667c0,2.345 -1.88,4.247 -4.197,4.247c-2.318,0 -4.197,-1.902 -4.197,-4.247c0,-2.346 1.879,-4.247 4.197,-4.247c2.317,0 4.197,1.901 4.197,4.247Z" style="fill:#fff;fill-rule:nonzero;"/><path d="M54.767,8.419c0,2.318 -1.88,4.197 -4.197,4.197c-2.318,0 -4.198,-1.879 -4.198,-4.197c0,-2.318 1.88,-4.197 4.198,-4.197c2.317,0 4.197,1.879 4.197,4.197Z" style="fill:#fff;fill-rule:nonzero;"/><rect x="75.872" y="4.229" width="8.396" height="20.292" style="fill:#fff;fill-rule:nonzero;"/><path d="M84.267,4.229c0,2.319 -1.88,4.197 -4.196,4.197c-2.319,0 -4.198,-1.878 -4.198,-4.197c0,-2.317 1.879,-4.197 4.198,-4.197c2.316,0 4.196,1.88 4.196,4.197Z" style="fill:#fff;fill-rule:nonzero;"/><path d="M62.081,51.894l14.443,-0.505c0,0 30.243,-21.691 51.39,-26.433l-0.001,-6.298l-42.914,2.333l-22.918,30.903Z" style="fill:#007289;fill-rule:nonzero;"/><path d="M62.939,51.894c0,0 27.501,-24.217 64.974,-33.236l-7.789,-4.69l-19.645,-1.352l-17.554,2.451c0,0 -15.515,-1.741 -67.111,35.896l47.125,0.931Z" style="fill:#fff;fill-rule:nonzero;"/><rect x="64.007" y="12.596" width="8.397" height="38.367" style="fill:#007289;fill-rule:nonzero;"/><path d="M72.401,12.596c0,2.319 -1.878,4.197 -4.196,4.197c-2.319,0 -4.198,-1.878 -4.198,-4.197c0,-2.318 1.879,-4.197 4.198,-4.197c2.318,0 4.196,1.879 4.196,4.197Z" style="fill:#007289;fill-rule:nonzero;"/><rect x="93.51" y="8.399" width="8.398" height="25.77" style="fill:#007289;fill-rule:nonzero;"/><path d="M101.907,8.399c0,2.318 -1.879,4.197 -4.197,4.197c-2.319,0 -4.197,-1.879 -4.197,-4.197c0,-2.318 1.878,-4.197 4.197,-4.197c2.318,0 4.197,1.879 4.197,4.197Z" style="fill:#007289;fill-rule:nonzero;"/><rect x="119.517" y="4.197" width="8.397" height="20.292" style="fill:#007289;fill-rule:nonzero;"/><path d="M127.913,4.197c0,2.318 -1.879,4.197 -4.198,4.197c-2.318,0 -4.197,-1.879 -4.197,-4.197c0,-2.317 1.879,-4.197 4.197,-4.197c2.319,0 4.198,1.88 4.198,4.197Z" style="fill:#007289;fill-rule:nonzero;"/><path d="M66.053,41.982c0,0 38.436,-22.576 59.587,-23.324l-0.214,-3.032c0,0 -19.825,0.467 -59.188,19.605l-0.185,6.751Z" style="fill:#007289;fill-rule:nonzero;"/><path d="M64.007,32.963c0,0 23.791,-15.86 63.906,-20.058l0,-3.654c0,0 -26.977,0.235 -63.906,16.21l0,7.502Z" style="fill:#007289;fill-rule:nonzero;"/><path d="M61.214,124.801l-3.117,0l0,8.448l-1.278,0l0,-8.448l-3.079,0l0,-1.006l7.474,0l0,1.006Z" style="fill:#007289;fill-rule:nonzero;"/><path d="M63.663,127.165c0.242,-0.338 0.54,-0.601 0.893,-0.789c0.352,-0.189 0.743,-0.282 1.172,-0.282c0.748,0 1.332,0.225 1.75,0.674c0.418,0.451 0.626,1.144 0.626,2.079l0,4.402l-1.279,0l0,-4.416c0,-0.579 -0.124,-1.008 -0.373,-1.285c-0.249,-0.278 -0.621,-0.416 -1.114,-0.416c-0.381,0 -0.712,0.075 -0.993,0.224c-0.282,0.15 -0.508,0.359 -0.682,0.626l0,5.267l-1.28,0l0,-10.13l1.28,0l0,4.046Z" style="fill:#007289;fill-rule:nonzero;"/><path d="M72.65,127.099c-0.446,0 -0.815,0.172 -1.108,0.517c-0.291,0.344 -0.47,0.784 -0.535,1.321l0.013,0.032l3.169,0l0,-0.103c0,-0.511 -0.126,-0.933 -0.377,-1.267c-0.251,-0.333 -0.638,-0.5 -1.162,-0.5Zm0.201,6.286c-1.009,0 -1.796,-0.322 -2.36,-0.967c-0.565,-0.645 -0.848,-1.493 -0.848,-2.545l0,-0.286c0,-1.009 0.292,-1.844 0.874,-2.503c0.582,-0.66 1.293,-0.99 2.133,-0.99c0.94,0 1.644,0.291 2.114,0.875c0.469,0.585 0.703,1.362 0.703,2.333l0,0.674l-4.492,0l-0.02,0.034c0,0.705 0.156,1.277 0.468,1.716c0.312,0.44 0.787,0.659 1.428,0.659c0.433,0 0.813,-0.062 1.14,-0.185c0.327,-0.123 0.607,-0.293 0.841,-0.509l0.501,0.831c-0.252,0.242 -0.583,0.447 -0.994,0.613c-0.412,0.167 -0.908,0.25 -1.488,0.25Z" style="fill:#007289;fill-rule:nonzero;"/><path d="M80.227,127.352l-0.654,-0.038c-0.338,0 -0.623,0.08 -0.855,0.24c-0.231,0.161 -0.411,0.386 -0.536,0.676l0,5.019l-1.279,0l0,-7.026l1.143,0l0.124,1.026c0.199,-0.364 0.444,-0.648 0.737,-0.851c0.291,-0.203 0.628,-0.304 1.009,-0.304c0.095,0 0.186,0.007 0.272,0.022c0.088,0.015 0.158,0.031 0.215,0.049l-0.176,1.187Z" style="fill:#007289;fill-rule:nonzero;"/><path d="M83.755,132.313c0.462,0 0.88,-0.118 1.252,-0.356c0.373,-0.238 0.615,-0.511 0.727,-0.819l0,-1.142l-1.435,0c-0.515,0 -0.927,0.13 -1.236,0.389c-0.31,0.26 -0.465,0.566 -0.465,0.916c0,0.312 0.098,0.558 0.292,0.74c0.195,0.182 0.483,0.272 0.865,0.272Zm2.123,0.936c-0.044,-0.212 -0.078,-0.399 -0.102,-0.562c-0.023,-0.162 -0.037,-0.325 -0.042,-0.49c-0.237,0.337 -0.549,0.619 -0.932,0.848c-0.383,0.227 -0.795,0.34 -1.237,0.34c-0.731,0 -1.288,-0.187 -1.672,-0.561c-0.383,-0.375 -0.574,-0.891 -0.574,-1.549c0,-0.671 0.271,-1.195 0.814,-1.574c0.543,-0.379 1.282,-0.569 2.211,-0.569l1.39,0l0,-0.695c0,-0.411 -0.126,-0.736 -0.376,-0.977c-0.252,-0.241 -0.606,-0.361 -1.064,-0.361c-0.416,0 -0.752,0.105 -1.008,0.313c-0.255,0.207 -0.383,0.456 -0.383,0.746l-1.215,0.014l-0.012,-0.039c-0.031,-0.512 0.208,-0.979 0.717,-1.404c0.509,-0.424 1.166,-0.635 1.971,-0.635c0.797,0 1.437,0.202 1.922,0.606c0.485,0.405 0.727,0.988 0.727,1.75l0,3.383c0,0.252 0.013,0.494 0.039,0.727c0.027,0.235 0.075,0.464 0.143,0.689l-1.317,0Z" style="fill:#007289;fill-rule:nonzero;"/><path d="M93.579,129.865c0,-0.796 -0.157,-1.451 -0.471,-1.964c-0.314,-0.513 -0.778,-0.769 -1.388,-0.769c-0.367,0 -0.681,0.084 -0.94,0.25c-0.26,0.167 -0.471,0.395 -0.631,0.685l0,3.397c0.16,0.29 0.371,0.515 0.631,0.678c0.259,0.161 0.578,0.243 0.953,0.243c0.607,0 1.066,-0.221 1.378,-0.665c0.312,-0.443 0.468,-1.016 0.468,-1.717l0,-0.138Zm1.279,0.138c0,1.012 -0.242,1.829 -0.727,2.451c-0.486,0.621 -1.154,0.931 -2.008,0.931c-0.431,0 -0.812,-0.073 -1.14,-0.217c-0.326,-0.145 -0.603,-0.363 -0.834,-0.653l0,3.435l-1.278,0l0,-9.727l0.98,0l0.201,0.909c0.23,-0.337 0.515,-0.595 0.857,-0.773c0.343,-0.177 0.74,-0.265 1.195,-0.265c0.87,0 1.547,0.344 2.029,1.036c0.483,0.689 0.725,1.602 0.725,2.735l0,0.138Z" style="fill:#007289;fill-rule:nonzero;"/><path d="M98.507,130.645l0.227,0.883l0.039,0l1.728,-5.305l1.422,0l-2.956,8.104c-0.177,0.472 -0.431,0.884 -0.762,1.234c-0.331,0.351 -0.779,0.526 -1.341,0.526c-0.105,0 -0.236,-0.012 -0.397,-0.036c-0.16,-0.024 -0.283,-0.046 -0.37,-0.069l0.13,-1.006c-0.025,-0.005 0.051,0 0.231,0.013c0.179,0.014 0.293,0.02 0.34,0.02c0.274,0 0.497,-0.122 0.669,-0.364c0.174,-0.242 0.319,-0.511 0.436,-0.805l0.305,-0.734l-2.611,-6.883l1.429,0l1.481,4.422Z" style="fill:#007289;fill-rule:nonzero;"/><path d="M113.274,130.223l0.012,0.038c0.017,0.888 -0.293,1.63 -0.935,2.228c-0.641,0.598 -1.487,0.896 -2.539,0.896c-1.069,0 -1.94,-0.378 -2.613,-1.135c-0.673,-0.759 -1.01,-1.719 -1.01,-2.884l0,-1.682c0,-1.165 0.337,-2.127 1.01,-2.886c0.673,-0.76 1.544,-1.139 2.613,-1.139c1.07,0 1.92,0.284 2.552,0.853c0.633,0.569 0.939,1.324 0.922,2.263l-0.012,0.039l-1.228,0c0,-0.662 -0.195,-1.186 -0.584,-1.572c-0.39,-0.385 -0.94,-0.577 -1.65,-0.577c-0.714,0 -1.283,0.288 -1.708,0.863c-0.424,0.575 -0.636,1.29 -0.636,2.143l0,1.695c0,0.861 0.212,1.58 0.636,2.155c0.425,0.576 0.994,0.864 1.708,0.864c0.71,0 1.26,-0.192 1.65,-0.575c0.389,-0.383 0.584,-0.912 0.584,-1.587l1.228,0Z" style="fill:#007289;fill-rule:nonzero;"/><path d="M117.481,127.099c-0.445,0 -0.815,0.172 -1.107,0.517c-0.292,0.344 -0.471,0.784 -0.535,1.321l0.011,0.032l3.17,0l0,-0.103c0,-0.511 -0.126,-0.933 -0.377,-1.267c-0.251,-0.333 -0.638,-0.5 -1.162,-0.5Zm0.201,6.286c-1.008,0 -1.795,-0.322 -2.36,-0.967c-0.565,-0.645 -0.848,-1.493 -0.848,-2.545l0,-0.286c0,-1.009 0.291,-1.844 0.874,-2.503c0.582,-0.66 1.293,-0.99 2.133,-0.99c0.94,0 1.644,0.291 2.113,0.875c0.471,0.585 0.705,1.362 0.705,2.333l0,0.674l-4.494,0l-0.018,0.034c0,0.705 0.155,1.277 0.467,1.716c0.311,0.44 0.788,0.659 1.428,0.659c0.433,0 0.813,-0.062 1.141,-0.185c0.326,-0.123 0.606,-0.293 0.84,-0.509l0.5,0.831c-0.252,0.242 -0.582,0.447 -0.994,0.613c-0.411,0.167 -0.907,0.25 -1.487,0.25Z" style="fill:#007289;fill-rule:nonzero;"/><path d="M122.878,126.223l0.089,1.045c0.235,-0.372 0.528,-0.661 0.88,-0.867c0.354,-0.205 0.754,-0.307 1.205,-0.307c0.758,0 1.344,0.221 1.76,0.665c0.415,0.444 0.623,1.128 0.623,2.055l0,4.435l-1.278,0l0,-4.409c0,-0.62 -0.123,-1.059 -0.367,-1.318c-0.245,-0.261 -0.618,-0.39 -1.12,-0.39c-0.395,0 -0.729,0.079 -1.004,0.237c-0.275,0.158 -0.493,0.38 -0.653,0.666l0,5.214l-1.279,0l0,-7.026l1.144,0Z" style="fill:#007289;fill-rule:nonzero;"/><path d="M131.072,124.528l0,1.695l1.331,0l0,0.948l-1.331,0l0,4.266c0,0.329 0.068,0.561 0.204,0.696c0.137,0.133 0.317,0.2 0.543,0.2c0.073,0 0.155,-0.01 0.246,-0.03c0.091,-0.018 0.166,-0.04 0.228,-0.06l0.174,0.876c-0.094,0.078 -0.236,0.141 -0.421,0.191c-0.186,0.05 -0.371,0.075 -0.553,0.075c-0.519,0 -0.932,-0.157 -1.239,-0.47c-0.308,-0.314 -0.461,-0.807 -0.461,-1.478l0,-4.266l-1.118,0l0,-0.948l1.118,0l0,-1.695l1.279,0Z" style="fill:#007289;fill-rule:nonzero;"/><path d="M137.098,127.352l-0.656,-0.038c-0.338,0 -0.622,0.08 -0.854,0.24c-0.232,0.161 -0.41,0.386 -0.537,0.676l0,5.019l-1.278,0l0,-7.026l1.143,0l0.124,1.026c0.199,-0.364 0.444,-0.648 0.736,-0.851c0.292,-0.203 0.629,-0.304 1.01,-0.304c0.095,0 0.185,0.007 0.272,0.022c0.087,0.015 0.158,0.031 0.215,0.049l-0.175,1.187Z" style="fill:#007289;fill-rule:nonzero;"/><path d="M141.013,127.099c-0.445,0 -0.814,0.172 -1.107,0.517c-0.292,0.344 -0.471,0.784 -0.535,1.321l0.012,0.032l3.169,0l0,-0.103c0,-0.511 -0.126,-0.933 -0.376,-1.267c-0.251,-0.333 -0.638,-0.5 -1.163,-0.5Zm0.202,6.286c-1.009,0 -1.795,-0.322 -2.361,-0.967c-0.564,-0.645 -0.847,-1.493 -0.847,-2.545l0,-0.286c0,-1.009 0.291,-1.844 0.874,-2.503c0.582,-0.66 1.292,-0.99 2.132,-0.99c0.94,0 1.645,0.291 2.115,0.875c0.468,0.585 0.704,1.362 0.704,2.333l0,0.674l-4.493,0l-0.02,0.034c0,0.705 0.156,1.277 0.467,1.716c0.312,0.44 0.788,0.659 1.429,0.659c0.433,0 0.812,-0.062 1.139,-0.185c0.326,-0.123 0.607,-0.293 0.842,-0.509l0.5,0.831c-0.252,0.242 -0.583,0.447 -0.994,0.613c-0.411,0.167 -0.907,0.25 -1.487,0.25Z" style="fill:#007289;fill-rule:nonzero;"/><path d="M4.071,109.579c-0.869,0 -1.467,-0.171 -1.794,-0.515c-0.329,-0.343 -0.493,-0.933 -0.493,-1.772l0,-8.461l-1.531,0l0,-1.189l0.182,0c0.335,0 0.602,-0.023 0.801,-0.068c0.197,-0.047 0.358,-0.111 0.48,-0.195c0.122,-0.083 0.214,-0.19 0.274,-0.32c0.061,-0.13 0.115,-0.278 0.161,-0.446l0.571,-2.035l1.098,0l0,3.064l3.086,0l0,1.189l-3.086,0l0,9.422l3.086,0l0,0.799c-0.259,0.154 -0.658,0.28 -1.2,0.377c-0.541,0.1 -1.086,0.15 -1.635,0.15Z" style="fill:#007289;fill-rule:nonzero;"/><path d="M8.37,108.344l1.715,0l0,-14.658l-1.715,-0.32l0,-0.824l3.75,-0.708l0,7.569l0.092,0c0.092,-0.229 0.232,-0.465 0.423,-0.709c0.19,-0.244 0.426,-0.465 0.709,-0.663c0.282,-0.198 0.613,-0.358 0.995,-0.48c0.38,-0.123 0.808,-0.183 1.281,-0.183c1.463,0 2.507,0.37 3.132,1.108c0.625,0.741 0.938,1.849 0.938,3.328l0,6.54l1.715,0l0,1.098l-5.466,0l0,-1.098l1.715,0l0,-6.379c0,-1.083 -0.221,-1.892 -0.663,-2.424c-0.442,-0.534 -1.143,-0.801 -2.104,-0.801c-0.335,0 -0.667,0.046 -0.994,0.137c-0.329,0.092 -0.626,0.233 -0.892,0.424c-0.267,0.189 -0.48,0.426 -0.64,0.708c-0.161,0.282 -0.241,0.614 -0.241,0.995l0,7.34l1.716,0l0,1.098l-5.466,0l0,-1.098Z" style="fill:#007289;fill-rule:nonzero;"/><path d="M25.497,102.398l6.084,0l0,-0.251c0,-0.518 -0.057,-0.998 -0.171,-1.441c-0.115,-0.442 -0.29,-0.826 -0.527,-1.154c-0.236,-0.329 -0.541,-0.583 -0.914,-0.766c-0.374,-0.184 -0.82,-0.275 -1.338,-0.275c-0.519,0 -0.972,0.087 -1.361,0.263c-0.388,0.176 -0.717,0.423 -0.983,0.743c-0.267,0.321 -0.465,0.698 -0.594,1.131c-0.13,0.436 -0.196,0.912 -0.196,1.43l0,0.32Zm3.248,7.319c-0.869,0 -1.647,-0.15 -2.332,-0.447c-0.686,-0.298 -1.265,-0.717 -1.738,-1.258c-0.473,-0.541 -0.831,-1.192 -1.075,-1.955c-0.244,-0.761 -0.366,-1.6 -0.366,-2.515c0,-0.915 0.137,-1.749 0.412,-2.504c0.274,-0.755 0.652,-1.406 1.132,-1.955c0.48,-0.549 1.048,-0.972 1.703,-1.269c0.655,-0.298 1.372,-0.446 2.15,-0.446c0.793,0 1.505,0.137 2.138,0.411c0.633,0.274 1.166,0.66 1.601,1.155c0.434,0.495 0.769,1.086 1.006,1.772c0.236,0.686 0.355,1.433 0.355,2.241l0,0.55l-8.234,0l0,0.571c0,1.266 0.325,2.264 0.972,2.995c0.649,0.733 1.514,1.098 2.597,1.098c0.96,0 1.721,-0.191 2.286,-0.571c0.563,-0.381 1.006,-0.884 1.327,-1.51l0.801,0.503c-0.154,0.412 -0.364,0.804 -0.63,1.178c-0.267,0.374 -0.598,0.706 -0.995,0.995c-0.397,0.29 -0.854,0.522 -1.372,0.698c-0.518,0.174 -1.098,0.263 -1.738,0.263Z" style="fill:#007289;fill-rule:nonzero;"/><path d="M6.963,82.487l4.954,0c1.316,0 2.338,-0.343 3.066,-1.031c0.726,-0.688 1.09,-1.616 1.09,-2.785l0,-1.581c0,-1.17 -0.364,-2.098 -1.09,-2.786c-0.728,-0.687 -1.75,-1.032 -3.066,-1.032l-4.954,0l0,9.215Zm0,-11.293l4.365,0c1.223,0 2.159,-0.311 2.805,-0.934c0.647,-0.625 0.971,-1.49 0.971,-2.599l0,-1.525c0,-1.108 -0.324,-1.973 -0.971,-2.597c-0.646,-0.624 -1.582,-0.935 -2.805,-0.935l-4.365,0l0,8.59Zm-6.963,11.501l2.564,0l0,-20.3l-2.564,0l0,-1.939l12.263,0c2.448,0 4.295,0.533 5.543,1.597c1.247,1.067 1.87,2.445 1.87,4.135c0,0.859 -0.138,1.616 -0.416,2.277c-0.276,0.661 -0.652,1.221 -1.125,1.684c-0.474,0.464 -1.011,0.841 -1.612,1.13c-0.6,0.29 -1.211,0.492 -1.835,0.607l0,0.173c0.646,0.07 1.321,0.231 2.027,0.485c0.703,0.253 1.351,0.622 1.939,1.105c0.589,0.485 1.068,1.077 1.437,1.779c0.37,0.703 0.555,1.538 0.555,2.505c0,2.096 -0.664,3.737 -1.992,4.923c-1.328,1.186 -3.146,1.779 -5.456,1.779l-13.198,0l0,-1.94Z" style="fill:#007289;fill-rule:nonzero;"/><path d="M24.283,82.695l2.563,0l0,-20.3l-2.563,0l0,-1.939l19.017,0l0,6.166l-3.36,0l0,-4.018l-8.694,0l0,8.417l5.785,0l0,-2.425l2.424,0l0,6.998l-2.424,0l0,-2.425l-5.785,0l0,9.318l9.041,0l0,-4.503l3.36,0l0,6.651l-19.364,0l0,-1.94Z" style="fill:#007289;fill-rule:nonzero;"/><path d="M51.441,82.695l2.909,0l0,-7.759l-6.858,-12.541l-1.801,0l0,-1.939l9.456,0l0,1.939l-2.84,0l5.231,9.873l0.138,0l5.267,-9.873l-2.842,0l0,-1.939l7.309,0l0,1.939l-1.801,0l-6.858,12.09l0,8.21l2.909,0l0,1.94l-10.219,0l0,-1.94Z" style="fill:#007289;fill-rule:nonzero;"/><path d="M79.985,82.834c1.963,0 3.516,-0.647 4.658,-1.941c1.144,-1.293 1.715,-3.093 1.715,-5.403l0,-5.889c0,-2.309 -0.571,-4.111 -1.715,-5.404c-1.142,-1.293 -2.695,-1.939 -4.658,-1.939c-1.963,0 -3.516,0.646 -4.659,1.939c-1.144,1.293 -1.715,3.095 -1.715,5.404l0,5.889c0,2.31 0.571,4.11 1.715,5.403c1.143,1.294 2.696,1.941 4.659,1.941Zm0,2.218c-1.641,0 -3.152,-0.285 -4.538,-0.851c-1.386,-0.565 -2.575,-1.385 -3.568,-2.459c-0.993,-1.073 -1.767,-2.384 -2.321,-3.932c-0.554,-1.547 -0.831,-3.301 -0.831,-5.264c0,-1.962 0.277,-3.718 0.831,-5.266c0.554,-1.547 1.328,-2.858 2.321,-3.932c0.993,-1.074 2.182,-1.893 3.568,-2.46c1.386,-0.565 2.897,-0.848 4.538,-0.848c1.64,0 3.152,0.283 4.537,0.848c1.386,0.567 2.576,1.386 3.568,2.46c0.993,1.074 1.766,2.385 2.322,3.932c0.553,1.548 0.83,3.304 0.83,5.266c0,1.963 -0.277,3.717 -0.83,5.264c-0.556,1.548 -1.329,2.859 -2.322,3.932c-0.992,1.074 -2.182,1.894 -3.568,2.459c-1.385,0.566 -2.897,0.851 -4.537,0.851Z" style="fill:#007289;fill-rule:nonzero;"/><path d="M94.708,82.695l2.562,0l0,-20.3l-2.562,0l0,-1.939l7.724,0l11.742,18.221l0.174,0l0,-16.282l-2.563,0l0,-1.939l7.481,0l0,1.939l-2.562,0l0,22.24l-3.742,0l-13.164,-20.369l-0.171,0l0,18.429l2.562,0l0,1.94l-7.481,0l0,-1.94Z" style="fill:#007289;fill-rule:nonzero;"/><path d="M129.417,82.487l3.29,0c2.378,0 4.174,-0.617 5.387,-1.853c1.213,-1.235 1.818,-3.053 1.818,-5.457l0,-5.265c0,-2.401 -0.605,-4.22 -1.818,-5.455c-1.213,-1.236 -3.009,-1.853 -5.387,-1.853l-3.29,0l0,19.883Zm-6.963,0.208l2.563,0l0,-20.3l-2.563,0l0,-1.939l10.912,0c1.662,0 3.191,0.26 4.59,0.779c1.396,0.52 2.602,1.288 3.619,2.304c1.016,1.016 1.807,2.281 2.373,3.793c0.566,1.512 0.85,3.252 0.85,5.214c0,1.986 -0.284,3.729 -0.85,5.23c-0.566,1.501 -1.357,2.76 -2.373,3.776c-1.017,1.016 -2.223,1.784 -3.619,2.303c-1.399,0.52 -2.928,0.78 -4.59,0.78l-10.912,0l0,-1.94Z" style="fill:#007289;fill-rule:nonzero;"/><path d="M40.753,108.091l4.902,0c1.116,0 1.99,-0.318 2.625,-0.953c0.635,-0.634 0.952,-1.461 0.952,-2.479l0,-1.27c0,-1.018 -0.317,-1.845 -0.952,-2.48c-0.635,-0.635 -1.509,-0.951 -2.625,-0.951l-4.902,0l0,8.133Zm0,-9.633l4.441,0c1.019,0 1.817,-0.293 2.394,-0.88c0.577,-0.586 0.865,-1.341 0.865,-2.264l0,-1.212c0,-0.923 -0.288,-1.676 -0.865,-2.263c-0.577,-0.587 -1.375,-0.88 -2.394,-0.88l-4.441,0l0,7.499Zm-4.904,9.748l2.193,0l0,-17.363l-2.193,0l0,-1.384l9.893,0c1.731,0 3.091,0.437 4.081,1.312c0.99,0.875 1.486,2.024 1.486,3.447c0,0.71 -0.112,1.351 -0.332,1.917c-0.221,0.568 -0.519,1.054 -0.894,1.458c-0.375,0.403 -0.798,0.725 -1.269,0.965c-0.472,0.242 -0.948,0.399 -1.428,0.476l0,0.116c0.5,0.038 1.029,0.158 1.586,0.36c0.558,0.202 1.067,0.505 1.529,0.909c0.462,0.403 0.841,0.899 1.139,1.485c0.298,0.587 0.447,1.283 0.447,2.091c0,0.847 -0.135,1.615 -0.404,2.307c-0.269,0.693 -0.649,1.284 -1.138,1.774c-0.491,0.49 -1.068,0.866 -1.731,1.125c-0.663,0.26 -1.38,0.39 -2.149,0.39l-10.816,0l0,-1.385Z" style="fill:#fff;fill-rule:nonzero;"/><path d="M40.753,108.091l4.902,0c1.116,0 1.99,-0.318 2.625,-0.953c0.635,-0.634 0.952,-1.461 0.952,-2.479l0,-1.27c0,-1.018 -0.317,-1.845 -0.952,-2.48c-0.635,-0.635 -1.509,-0.951 -2.625,-0.951l-4.902,0l0,8.133Zm0,-9.633l4.441,0c1.019,0 1.817,-0.293 2.394,-0.88c0.577,-0.586 0.865,-1.341 0.865,-2.264l0,-1.212c0,-0.923 -0.288,-1.676 -0.865,-2.263c-0.577,-0.587 -1.375,-0.88 -2.394,-0.88l-4.441,0l0,7.499Zm-4.904,9.748l2.193,0l0,-17.363l-2.193,0l0,-1.384l9.893,0c1.731,0 3.091,0.437 4.081,1.312c0.99,0.875 1.486,2.024 1.486,3.447c0,0.71 -0.112,1.351 -0.332,1.917c-0.221,0.568 -0.519,1.054 -0.894,1.458c-0.375,0.403 -0.798,0.725 -1.269,0.965c-0.472,0.242 -0.948,0.399 -1.428,0.476l0,0.116c0.5,0.038 1.029,0.158 1.586,0.36c0.558,0.202 1.067,0.505 1.529,0.909c0.462,0.403 0.841,0.899 1.139,1.485c0.298,0.587 0.447,1.283 0.447,2.091c0,0.847 -0.135,1.615 -0.404,2.307c-0.269,0.693 -0.649,1.284 -1.138,1.774c-0.491,0.49 -1.068,0.866 -1.731,1.125c-0.663,0.26 -1.38,0.39 -2.149,0.39l-10.816,0l0,-1.385Z" style="fill:none;stroke:#fff;stroke-width:0.53px;"/><path d="M60.509,98.861l4.5,0c1.018,0 1.807,-0.312 2.364,-0.937c0.558,-0.625 0.837,-1.399 0.837,-2.322l0,-1.384c0,-0.923 -0.279,-1.697 -0.837,-2.322c-0.557,-0.625 -1.346,-0.937 -2.364,-0.937l-4.5,0l0,7.902Zm-4.903,9.345l2.192,0l0,-17.363l-2.192,0l0,-1.384l9.662,0c1.826,0 3.249,0.442 4.269,1.326c1.018,0.885 1.529,2.222 1.529,4.01c0,1.345 -0.38,2.475 -1.141,3.388c-0.758,0.913 -1.878,1.514 -3.359,1.803l3.404,6.172c0.383,0.712 0.827,1.23 1.327,1.558c0.499,0.327 1.114,0.49 1.844,0.49l0.233,0l0,1.385l-1.962,0c-0.578,0 -1.063,-0.053 -1.457,-0.16c-0.395,-0.105 -0.74,-0.268 -1.039,-0.489c-0.297,-0.222 -0.562,-0.495 -0.792,-0.823c-0.231,-0.326 -0.462,-0.711 -0.692,-1.153l-3.606,-6.605l-3.317,0l0,7.845l2.192,0l0,1.385l-7.095,0l0,-1.385Z" style="fill:#fff;fill-rule:nonzero;"/><path d="M60.509,98.861l4.5,0c1.018,0 1.807,-0.312 2.364,-0.937c0.558,-0.625 0.837,-1.399 0.837,-2.322l0,-1.384c0,-0.923 -0.279,-1.697 -0.837,-2.322c-0.557,-0.625 -1.346,-0.937 -2.364,-0.937l-4.5,0l0,7.902Zm-4.903,9.345l2.192,0l0,-17.363l-2.192,0l0,-1.384l9.662,0c1.826,0 3.249,0.442 4.269,1.326c1.018,0.885 1.529,2.222 1.529,4.01c0,1.345 -0.38,2.475 -1.141,3.388c-0.758,0.913 -1.878,1.514 -3.359,1.803l3.404,6.172c0.383,0.712 0.827,1.23 1.327,1.558c0.499,0.327 1.114,0.49 1.844,0.49l0.233,0l0,1.385l-1.962,0c-0.578,0 -1.063,-0.053 -1.457,-0.16c-0.395,-0.105 -0.74,-0.268 -1.039,-0.489c-0.297,-0.222 -0.562,-0.495 -0.792,-0.823c-0.231,-0.326 -0.462,-0.711 -0.692,-1.153l-3.606,-6.605l-3.317,0l0,7.845l2.192,0l0,1.385l-7.095,0l0,-1.385Z" style="fill:none;stroke:#fff;stroke-width:0.53px;"/><path d="M75.449,108.206l2.192,0l0,-17.363l-2.192,0l0,-1.384l7.095,0l0,1.384l-2.192,0l0,17.363l2.192,0l0,1.385l-7.095,0l0,-1.385Z" style="fill:#fff;fill-rule:nonzero;"/><path d="M75.449,108.206l2.192,0l0,-17.363l-2.192,0l0,-1.384l7.095,0l0,1.384l-2.192,0l0,17.363l2.192,0l0,1.385l-7.095,0l0,-1.385Z" style="fill:none;stroke:#fff;stroke-width:0.53px;"/><path d="M90.619,108.091l3.489,0c0.982,0 1.865,-0.164 2.654,-0.491c0.788,-0.327 1.466,-0.788 2.034,-1.384c0.566,-0.596 1,-1.307 1.297,-2.134c0.298,-0.827 0.447,-1.75 0.447,-2.769l0,-3.576c0,-1.001 -0.149,-1.919 -0.447,-2.755c-0.297,-0.837 -0.731,-1.553 -1.297,-2.149c-0.568,-0.595 -1.246,-1.057 -2.034,-1.385c-0.789,-0.326 -1.672,-0.489 -2.654,-0.489l-3.489,0l0,17.132Zm-4.904,0.115l2.193,0l0,-17.363l-2.193,0l0,-1.384l8.682,0c1.346,0 2.582,0.207 3.707,0.62c1.124,0.414 2.09,1.039 2.898,1.874c0.807,0.837 1.436,1.885 1.889,3.144c0.451,1.26 0.678,2.736 0.678,4.427c0,1.693 -0.227,3.168 -0.678,4.428c-0.453,1.259 -1.082,2.307 -1.889,3.143c-0.808,0.836 -1.774,1.461 -2.898,1.874c-1.125,0.415 -2.361,0.622 -3.707,0.622l-8.682,0l0,-1.385Z" style="fill:#fff;fill-rule:nonzero;"/><path d="M90.619,108.091l3.489,0c0.982,0 1.865,-0.164 2.654,-0.491c0.788,-0.327 1.466,-0.788 2.034,-1.384c0.566,-0.596 1,-1.307 1.297,-2.134c0.298,-0.827 0.447,-1.75 0.447,-2.769l0,-3.576c0,-1.001 -0.149,-1.919 -0.447,-2.755c-0.297,-0.837 -0.731,-1.553 -1.297,-2.149c-0.568,-0.595 -1.246,-1.057 -2.034,-1.385c-0.789,-0.326 -1.672,-0.489 -2.654,-0.489l-3.489,0l0,17.132Zm-4.904,0.115l2.193,0l0,-17.363l-2.193,0l0,-1.384l8.682,0c1.346,0 2.582,0.207 3.707,0.62c1.124,0.414 2.09,1.039 2.898,1.874c0.807,0.837 1.436,1.885 1.889,3.144c0.451,1.26 0.678,2.736 0.678,4.427c0,1.693 -0.227,3.168 -0.678,4.428c-0.453,1.259 -1.082,2.307 -1.889,3.143c-0.808,0.836 -1.774,1.461 -2.898,1.874c-1.125,0.415 -2.361,0.622 -3.707,0.622l-8.682,0l0,-1.385Z" style="fill:none;stroke:#fff;stroke-width:0.53px;"/><path d="M115.307,109.936c-1.289,0 -2.457,-0.241 -3.504,-0.721c-1.048,-0.48 -1.947,-1.168 -2.697,-2.062c-0.75,-0.894 -1.332,-1.984 -1.744,-3.273c-0.414,-1.288 -0.621,-2.741 -0.621,-4.356c0,-1.673 0.207,-3.157 0.621,-4.456c0.412,-1.297 1.005,-2.384 1.773,-3.259c0.769,-0.874 1.697,-1.542 2.784,-2.004c1.086,-0.461 2.301,-0.693 3.648,-0.693c1.576,0 2.792,0.212 3.648,0.635c0.855,0.423 1.409,0.924 1.659,1.5l0.144,0l0,-1.788l2.221,0l0,5.884l-2.221,0l0,-1.356c0,-1.077 -0.453,-1.89 -1.355,-2.436c-0.905,-0.549 -2.145,-0.823 -3.721,-0.823c-1.078,0 -2,0.163 -2.769,0.491c-0.77,0.326 -1.409,0.792 -1.917,1.398c-0.511,0.606 -0.885,1.328 -1.125,2.163c-0.242,0.836 -0.361,1.756 -0.361,2.754l0,3.923c0,1 0.139,1.914 0.418,2.74c0.278,0.826 0.674,1.533 1.182,2.119c0.51,0.587 1.125,1.039 1.845,1.357c0.722,0.317 1.524,0.475 2.41,0.475c0.75,0 1.436,-0.091 2.062,-0.274c0.624,-0.182 1.167,-0.456 1.629,-0.822c0.462,-0.365 0.822,-0.807 1.082,-1.327c0.259,-0.518 0.39,-1.124 0.39,-1.817l0,-2.682l-3.607,0l0,-1.384l8.162,0l0,1.384l-1.844,0l0,8.365l-1.01,0l-1.529,-2.741l-0.116,0c-0.153,0.366 -0.379,0.732 -0.677,1.096c-0.299,0.366 -0.678,0.697 -1.139,0.996c-0.461,0.298 -1,0.537 -1.615,0.72c-0.615,0.182 -1.317,0.274 -2.106,0.274Z" style="fill:#fff;fill-rule:nonzero;"/><path d="M115.307,109.936c-1.289,0 -2.457,-0.241 -3.504,-0.721c-1.048,-0.48 -1.947,-1.168 -2.697,-2.062c-0.75,-0.894 -1.332,-1.984 -1.744,-3.273c-0.414,-1.288 -0.621,-2.741 -0.621,-4.356c0,-1.673 0.207,-3.157 0.621,-4.456c0.412,-1.297 1.005,-2.384 1.773,-3.259c0.769,-0.874 1.697,-1.542 2.784,-2.004c1.086,-0.461 2.301,-0.693 3.648,-0.693c1.576,0 2.792,0.212 3.648,0.635c0.855,0.423 1.409,0.924 1.659,1.5l0.144,0l0,-1.788l2.221,0l0,5.884l-2.221,0l0,-1.356c0,-1.077 -0.453,-1.89 -1.355,-2.436c-0.905,-0.549 -2.145,-0.823 -3.721,-0.823c-1.078,0 -2,0.163 -2.769,0.491c-0.77,0.326 -1.409,0.792 -1.917,1.398c-0.511,0.606 -0.885,1.328 -1.125,2.163c-0.242,0.836 -0.361,1.756 -0.361,2.754l0,3.923c0,1 0.139,1.914 0.418,2.74c0.278,0.826 0.674,1.533 1.182,2.119c0.51,0.587 1.125,1.039 1.845,1.357c0.722,0.317 1.524,0.475 2.41,0.475c0.75,0 1.436,-0.091 2.062,-0.274c0.624,-0.182 1.167,-0.456 1.629,-0.822c0.462,-0.365 0.822,-0.807 1.082,-1.327c0.259,-0.518 0.39,-1.124 0.39,-1.817l0,-2.682l-3.607,0l0,-1.384l8.162,0l0,1.384l-1.844,0l0,8.365l-1.01,0l-1.529,-2.741l-0.116,0c-0.153,0.366 -0.379,0.732 -0.677,1.096c-0.299,0.366 -0.678,0.697 -1.139,0.996c-0.461,0.298 -1,0.537 -1.615,0.72c-0.615,0.182 -1.317,0.274 -2.106,0.274Z" style="fill:none;stroke:#fff;stroke-width:0.53px;"/><path d="M128.084,108.206l2.191,0l0,-17.363l-2.191,0l0,-1.384l15.372,0l0,4.903l-2.221,0l0,-3.403l-8.248,0l0,7.527l5.682,0l0,-2.308l1.845,0l0,6.116l-1.845,0l0,-2.308l-5.682,0l0,8.105l8.537,0l0,-3.693l2.221,0l0,5.193l-15.661,0l0,-1.385Z" style="fill:#fff;fill-rule:nonzero;"/><path d="M128.084,108.206l2.191,0l0,-17.363l-2.191,0l0,-1.384l15.372,0l0,4.903l-2.221,0l0,-3.403l-8.248,0l0,7.527l5.682,0l0,-2.308l1.845,0l0,6.116l-1.845,0l0,-2.308l-5.682,0l0,8.105l8.537,0l0,-3.693l2.221,0l0,5.193l-15.661,0l0,-1.385Z" style="fill:none;stroke:#fff;stroke-width:0.53px;"/><rect x="0" y="50.865" width="143.76" height="2.975" style="fill:#fff;fill-rule:nonzero;"/><rect x="0.042" y="116.09" width="143.76" height="2.974" style="fill:#fff;fill-rule:nonzero;"/></svg>