<?xml version="1.0" encoding="UTF-8" standalone="no"?><!DOCTYPE svg PUBLIC "-//W3C//DTD SVG 1.1//EN" "http://www.w3.org/Graphics/SVG/1.1/DTD/svg11.dtd"><svg width="100%" height="100%" viewBox="0 0 199 187" version="1.1" xmlns="http://www.w3.org/2000/svg" xmlns:xlink="http://www.w3.org/1999/xlink" xml:space="preserve" xmlns:serif="http://www.serif.com/" style="fill-rule:evenodd;clip-rule:evenodd;stroke-miterlimit:1.41421;"><path d="M31.115,56.142c0,0 52.338,-35.234 81.29,-37.879l-1.453,-2.363c0,0 -27.553,2.595 -80.075,31.859l0.238,8.383Z" style="fill:#939598;fill-rule:nonzero;"/><path d="M28.296,44.921c0,0 30.951,-23.175 85.616,-32.221l-0.027,-1.741c0,0 -33.892,0.616 -86.554,25.062l0.965,8.9Z" style="fill:#939598;fill-rule:nonzero;"/><rect x="63.699" y="11.564" width="11.535" height="35.399" style="fill:#939598;fill-rule:nonzero;"/><rect x="22.529" y="17.4" width="11.534" height="53.884" style="fill:#939598;fill-rule:nonzero;"/><path d="M34.06,17.4c0,3.222 -2.583,5.833 -5.766,5.833c-3.185,0 -5.765,-2.611 -5.765,-5.833c0,-3.222 2.58,-5.836 5.765,-5.836c3.183,0 5.766,2.614 5.766,5.836Z" style="fill:#939598;fill-rule:nonzero;"/><path d="M75.232,11.564c0,3.185 -2.582,5.766 -5.766,5.766c-3.184,0 -5.765,-2.581 -5.765,-5.766c0,-3.183 2.581,-5.765 5.765,-5.765c3.184,0 5.766,2.582 5.766,5.765Z" style="fill:#939598;fill-rule:nonzero;"/><rect x="104.221" y="5.81" width="11.534" height="27.874" style="fill:#939598;fill-rule:nonzero;"/><path d="M115.754,5.81c0,3.184 -2.581,5.765 -5.765,5.765c-3.185,0 -5.766,-2.581 -5.766,-5.765c0,-3.185 2.581,-5.767 5.766,-5.767c3.184,0 5.765,2.582 5.765,5.767Z" style="fill:#939598;fill-rule:nonzero;"/><path d="M85.278,71.284l19.842,-0.692c0,0 41.542,-29.797 70.59,-36.312l-0.002,-8.65l-58.948,3.204l-31.482,42.45Z" style="fill:#6d6f71;fill-rule:nonzero;"/><path d="M86.456,71.284c0,0 37.779,-33.265 89.252,-45.654l-10.698,-6.445l-26.987,-1.855l-24.111,3.366c0,0 -21.313,-2.392 -92.188,49.31l64.732,1.278Z" style="fill:#939598;fill-rule:nonzero;"/><rect x="87.924" y="17.303" width="11.534" height="52.703" style="fill:#6d6f71;fill-rule:nonzero;"/><path d="M99.456,17.303c0,3.184 -2.582,5.764 -5.766,5.764c-3.186,0 -5.766,-2.58 -5.766,-5.764c0,-3.184 2.58,-5.765 5.766,-5.765c3.184,0 5.766,2.581 5.766,5.765Z" style="fill:#6d6f71;fill-rule:nonzero;"/><rect x="128.453" y="11.538" width="11.534" height="35.397" style="fill:#6d6f71;fill-rule:nonzero;"/><path d="M139.986,11.538c0,3.183 -2.582,5.765 -5.766,5.765c-3.185,0 -5.765,-2.582 -5.765,-5.765c0,-3.186 2.58,-5.766 5.765,-5.766c3.184,0 5.766,2.58 5.766,5.766Z" style="fill:#6d6f71;fill-rule:nonzero;"/><rect x="164.176" y="5.767" width="11.534" height="27.873" style="fill:#6d6f71;fill-rule:nonzero;"/><path d="M175.708,5.767c0,3.183 -2.58,5.764 -5.764,5.764c-3.185,0 -5.767,-2.581 -5.767,-5.764c0,-3.185 2.582,-5.767 5.767,-5.767c3.184,0 5.764,2.582 5.764,5.767Z" style="fill:#6d6f71;fill-rule:nonzero;"/><path d="M90.735,57.668c0,0 52.797,-31.011 81.851,-32.038l-0.293,-4.166c0,0 -27.233,0.641 -81.303,26.931l-0.255,9.273Z" style="fill:#6d6f71;fill-rule:nonzero;"/><path d="M87.924,45.279c0,0 32.679,-21.786 87.784,-27.552l0,-5.02c0,0 -37.056,0.323 -87.784,22.268l0,10.304Z" style="fill:#6d6f71;fill-rule:nonzero;"/><path d="M84.088,171.435l-4.281,0l0,11.603l-1.758,0l0,-11.603l-4.228,0l0,-1.382l10.267,0l0,1.382Z" style="fill:#6d6f71;fill-rule:nonzero;"/><path d="M87.451,174.681c0.333,-0.463 0.742,-0.826 1.226,-1.083c0.485,-0.26 1.022,-0.388 1.61,-0.388c1.029,0 1.83,0.309 2.405,0.927c0.573,0.619 0.86,1.571 0.86,2.854l0,6.047l-1.757,0l0,-6.065c0,-0.797 -0.172,-1.384 -0.512,-1.764c-0.343,-0.383 -0.853,-0.572 -1.531,-0.572c-0.523,0 -0.978,0.102 -1.365,0.307c-0.387,0.205 -0.698,0.492 -0.936,0.861l0,7.233l-1.758,0l0,-13.914l1.758,0l0,5.557Z" style="fill:#6d6f71;fill-rule:nonzero;"/><path d="M99.796,174.592c-0.612,0 -1.12,0.236 -1.521,0.71c-0.402,0.471 -0.646,1.078 -0.736,1.814l0.018,0.045l4.354,0l0,-0.143c0,-0.702 -0.173,-1.281 -0.518,-1.739c-0.345,-0.459 -0.878,-0.687 -1.597,-0.687Zm0.278,8.634c-1.386,0 -2.467,-0.442 -3.243,-1.327c-0.776,-0.888 -1.164,-2.053 -1.164,-3.497l0,-0.393c0,-1.386 0.4,-2.533 1.2,-3.44c0.798,-0.906 1.775,-1.359 2.929,-1.359c1.29,0 2.259,0.4 2.905,1.203c0.643,0.803 0.966,1.87 0.966,3.202l0,0.929l-6.172,0l-0.027,0.044c0,0.97 0.215,1.757 0.642,2.358c0.429,0.605 1.082,0.906 1.964,0.906c0.592,0 1.115,-0.083 1.564,-0.253c0.448,-0.171 0.835,-0.403 1.155,-0.701l0.688,1.142c-0.345,0.334 -0.8,0.615 -1.366,0.843c-0.564,0.23 -1.244,0.343 -2.041,0.343Z" style="fill:#6d6f71;fill-rule:nonzero;"/><path d="M110.206,174.938l-0.901,-0.051c-0.464,0 -0.854,0.109 -1.174,0.329c-0.317,0.22 -0.562,0.531 -0.736,0.928l0,6.894l-1.756,0l0,-9.649l1.569,0l0.17,1.409c0.275,-0.5 0.611,-0.891 1.012,-1.17c0.402,-0.278 0.863,-0.418 1.386,-0.418c0.132,0 0.256,0.01 0.377,0.031c0.118,0.02 0.217,0.042 0.292,0.067l-0.239,1.63Z" style="fill:#6d6f71;fill-rule:nonzero;"/><path d="M115.049,181.755c0.636,0 1.21,-0.165 1.721,-0.491c0.512,-0.327 0.846,-0.702 1,-1.123l0,-1.572l-1.973,0c-0.707,0 -1.273,0.18 -1.698,0.536c-0.426,0.357 -0.638,0.776 -0.638,1.256c0,0.429 0.134,0.77 0.403,1.02c0.266,0.25 0.663,0.374 1.185,0.374Zm2.917,1.283c-0.059,-0.29 -0.105,-0.547 -0.138,-0.77c-0.034,-0.224 -0.052,-0.448 -0.058,-0.675c-0.327,0.465 -0.754,0.853 -1.281,1.165c-0.526,0.313 -1.092,0.468 -1.699,0.468c-1.005,0 -1.77,-0.257 -2.297,-0.772c-0.526,-0.514 -0.788,-1.223 -0.788,-2.126c0,-0.922 0.372,-1.643 1.12,-2.165c0.745,-0.519 1.757,-0.78 3.036,-0.78l1.909,0l0,-0.954c0,-0.564 -0.173,-1.012 -0.517,-1.341c-0.345,-0.332 -0.834,-0.496 -1.464,-0.496c-0.57,0 -1.032,0.143 -1.383,0.428c-0.35,0.286 -0.526,0.627 -0.526,1.025l-1.668,0.018l-0.017,-0.053c-0.041,-0.701 0.287,-1.345 0.985,-1.927c0.698,-0.583 1.602,-0.873 2.706,-0.873c1.096,0 1.976,0.277 2.643,0.833c0.665,0.556 0.998,1.358 0.998,2.404l0,4.647c0,0.345 0.017,0.678 0.054,0.999c0.036,0.321 0.1,0.636 0.196,0.945l-1.811,0Z" style="fill:#6d6f71;fill-rule:nonzero;"/><path d="M128.545,178.391c0,-1.093 -0.215,-1.994 -0.647,-2.698c-0.431,-0.705 -1.066,-1.056 -1.903,-1.056c-0.507,0 -0.938,0.114 -1.295,0.342c-0.357,0.231 -0.645,0.544 -0.865,0.942l0,4.667c0.22,0.396 0.508,0.707 0.865,0.931c0.357,0.221 0.795,0.333 1.311,0.333c0.832,0 1.465,-0.304 1.892,-0.913c0.428,-0.61 0.642,-1.397 0.642,-2.36l0,-0.188Zm1.756,0.188c0,1.392 -0.333,2.514 -0.998,3.368c-0.667,0.853 -1.584,1.279 -2.758,1.279c-0.592,0 -1.115,-0.098 -1.564,-0.299c-0.449,-0.199 -0.831,-0.498 -1.146,-0.895l0,4.716l-1.757,0l0,-13.359l1.346,0l0.278,1.248c0.314,-0.464 0.708,-0.818 1.176,-1.063c0.47,-0.242 1.018,-0.364 1.642,-0.364c1.196,0 2.125,0.474 2.788,1.423c0.662,0.948 0.993,2.201 0.993,3.758l0,0.188Z" style="fill:#6d6f71;fill-rule:nonzero;"/><path d="M135.315,179.462l0.311,1.213l0.055,0l2.372,-7.286l1.953,0l-4.057,11.13c-0.245,0.648 -0.594,1.214 -1.05,1.697c-0.454,0.48 -1.068,0.72 -1.842,0.72c-0.142,0 -0.324,-0.016 -0.543,-0.048c-0.22,-0.033 -0.39,-0.063 -0.51,-0.095l0.18,-1.381c-0.036,-0.008 0.069,0 0.315,0.017c0.249,0.019 0.405,0.026 0.47,0.026c0.374,0 0.681,-0.164 0.919,-0.499c0.237,-0.331 0.438,-0.701 0.596,-1.104l0.42,-1.009l-3.585,-9.454l1.961,0l2.035,6.073Z" style="fill:#6d6f71;fill-rule:nonzero;"/><path d="M155.599,178.883l0.018,0.052c0.023,1.22 -0.404,2.241 -1.286,3.06c-0.879,0.822 -2.042,1.231 -3.486,1.231c-1.469,0 -2.666,-0.52 -3.59,-1.56c-0.924,-1.04 -1.387,-2.361 -1.387,-3.961l0,-2.311c0,-1.599 0.463,-2.92 1.387,-3.963c0.924,-1.044 2.121,-1.566 3.59,-1.566c1.469,0 2.636,0.391 3.506,1.172c0.867,0.782 1.289,1.817 1.266,3.109l-0.018,0.053l-1.685,0c0,-0.909 -0.268,-1.63 -0.803,-2.158c-0.536,-0.53 -1.292,-0.795 -2.266,-0.795c-0.981,0 -1.764,0.396 -2.345,1.187c-0.584,0.791 -0.875,1.772 -0.875,2.943l0,2.329c0,1.184 0.291,2.17 0.875,2.96c0.581,0.791 1.364,1.187 2.345,1.187c0.974,0 1.73,-0.263 2.266,-0.79c0.535,-0.526 0.803,-1.252 0.803,-2.179l1.685,0Z" style="fill:#6d6f71;fill-rule:nonzero;"/><path d="M161.378,174.592c-0.611,0 -1.119,0.236 -1.52,0.71c-0.402,0.471 -0.647,1.078 -0.735,1.814l0.017,0.045l4.354,0l0,-0.143c0,-0.702 -0.173,-1.281 -0.52,-1.739c-0.344,-0.459 -0.875,-0.687 -1.596,-0.687Zm0.277,8.634c-1.385,0 -2.466,-0.442 -3.241,-1.327c-0.777,-0.888 -1.166,-2.053 -1.166,-3.497l0,-0.393c0,-1.386 0.4,-2.533 1.201,-3.44c0.799,-0.906 1.776,-1.359 2.929,-1.359c1.29,0 2.258,0.4 2.905,1.203c0.645,0.803 0.966,1.87 0.966,3.202l0,0.929l-6.17,0l-0.029,0.044c0,0.97 0.215,1.757 0.643,2.358c0.429,0.605 1.082,0.906 1.962,0.906c0.595,0 1.117,-0.083 1.566,-0.253c0.448,-0.171 0.833,-0.403 1.154,-0.701l0.688,1.142c-0.346,0.334 -0.8,0.615 -1.364,0.843c-0.565,0.23 -1.247,0.343 -2.044,0.343Z" style="fill:#6d6f71;fill-rule:nonzero;"/><path d="M168.791,173.389l0.125,1.434c0.323,-0.511 0.723,-0.907 1.208,-1.19c0.485,-0.283 1.038,-0.423 1.655,-0.423c1.041,0 1.847,0.304 2.418,0.912c0.57,0.611 0.856,1.552 0.856,2.824l0,6.092l-1.757,0l0,-6.056c0,-0.849 -0.168,-1.454 -0.504,-1.81c-0.336,-0.359 -0.849,-0.535 -1.539,-0.535c-0.542,0 -1,0.108 -1.379,0.326c-0.376,0.217 -0.676,0.521 -0.896,0.915l0,7.16l-1.757,0l0,-9.649l1.57,0Z" style="fill:#6d6f71;fill-rule:nonzero;"/><path d="M180.047,171.059l0,2.33l1.829,0l0,1.299l-1.829,0l0,5.862c0,0.452 0.095,0.77 0.282,0.955c0.187,0.184 0.437,0.276 0.746,0.276c0.099,0 0.214,-0.012 0.338,-0.041c0.125,-0.025 0.228,-0.055 0.311,-0.084l0.24,1.204c-0.129,0.108 -0.323,0.195 -0.578,0.263c-0.255,0.069 -0.51,0.103 -0.759,0.103c-0.713,0 -1.281,-0.216 -1.704,-0.647c-0.421,-0.43 -0.633,-1.107 -0.633,-2.029l0,-5.862l-1.533,0l0,-1.299l1.533,0l0,-2.33l1.757,0Z" style="fill:#6d6f71;fill-rule:nonzero;"/><path d="M188.327,174.938l-0.902,-0.051c-0.464,0 -0.854,0.109 -1.174,0.329c-0.317,0.22 -0.562,0.531 -0.735,0.928l0,6.894l-1.758,0l0,-9.649l1.571,0l0.169,1.409c0.274,-0.5 0.61,-0.891 1.012,-1.17c0.401,-0.278 0.864,-0.418 1.388,-0.418c0.13,0 0.255,0.01 0.375,0.031c0.118,0.02 0.217,0.042 0.294,0.067l-0.24,1.63Z" style="fill:#6d6f71;fill-rule:nonzero;"/><path d="M193.705,174.592c-0.613,0 -1.122,0.236 -1.522,0.71c-0.402,0.471 -0.645,1.078 -0.734,1.814l0.016,0.045l4.353,0l0,-0.143c0,-0.702 -0.173,-1.281 -0.518,-1.739c-0.344,-0.459 -0.877,-0.687 -1.595,-0.687Zm0.276,8.634c-1.386,0 -2.466,-0.442 -3.241,-1.327c-0.778,-0.888 -1.165,-2.053 -1.165,-3.497l0,-0.393c0,-1.386 0.398,-2.533 1.199,-3.44c0.802,-0.906 1.777,-1.359 2.931,-1.359c1.291,0 2.258,0.4 2.904,1.203c0.643,0.803 0.967,1.87 0.967,3.202l0,0.929l-6.174,0l-0.026,0.044c0,0.97 0.214,1.757 0.643,2.358c0.428,0.605 1.08,0.906 1.962,0.906c0.596,0 1.116,-0.083 1.565,-0.253c0.449,-0.171 0.834,-0.403 1.156,-0.701l0.687,1.142c-0.346,0.334 -0.801,0.615 -1.366,0.843c-0.563,0.23 -1.245,0.343 -2.042,0.343Z" style="fill:#6d6f71;fill-rule:nonzero;"/><path d="M5.593,150.524c-1.194,0 -2.015,-0.236 -2.466,-0.707c-0.451,-0.471 -0.675,-1.281 -0.675,-2.434l0,-11.622l-2.105,0l0,-1.633l0.251,0c0.461,0 0.827,-0.031 1.1,-0.095c0.272,-0.063 0.492,-0.151 0.66,-0.268c0.167,-0.114 0.293,-0.26 0.376,-0.439c0.085,-0.179 0.158,-0.382 0.221,-0.612l0.785,-2.796l1.508,0l0,4.21l4.24,0l0,1.633l-4.24,0l0,12.941l4.24,0l0,1.099c-0.357,0.211 -0.906,0.384 -1.649,0.518c-0.744,0.138 -1.493,0.205 -2.246,0.205Z" style="fill:#6d6f71;fill-rule:nonzero;"/><path d="M11.498,148.828l2.355,0l0,-20.136l-2.355,-0.438l0,-1.132l5.151,-0.975l0,10.399l0.127,0c0.126,-0.314 0.318,-0.639 0.581,-0.974c0.261,-0.334 0.586,-0.638 0.974,-0.91c0.385,-0.273 0.841,-0.492 1.366,-0.661c0.523,-0.166 1.11,-0.25 1.759,-0.25c2.01,0 3.445,0.508 4.303,1.522c0.859,1.016 1.288,2.539 1.288,4.571l0,8.984l2.356,0l0,1.509l-7.507,0l0,-1.509l2.355,0l0,-8.764c0,-1.487 -0.303,-2.597 -0.912,-3.329c-0.607,-0.734 -1.57,-1.099 -2.888,-1.099c-0.461,0 -0.916,0.062 -1.367,0.188c-0.452,0.124 -0.86,0.318 -1.226,0.581c-0.366,0.261 -0.658,0.586 -0.879,0.974c-0.22,0.388 -0.33,0.843 -0.33,1.366l0,10.083l2.357,0l0,1.509l-7.508,0l0,-1.509Z" style="fill:#6d6f71;fill-rule:nonzero;"/><path d="M35.024,140.662l8.358,0l0,-0.346c0,-0.713 -0.08,-1.372 -0.236,-1.98c-0.157,-0.608 -0.398,-1.136 -0.722,-1.586c-0.324,-0.45 -0.744,-0.802 -1.258,-1.052c-0.512,-0.252 -1.126,-0.379 -1.837,-0.379c-0.712,0 -1.335,0.122 -1.869,0.364c-0.533,0.24 -0.984,0.581 -1.349,1.019c-0.367,0.441 -0.639,0.96 -0.819,1.555c-0.177,0.597 -0.268,1.252 -0.268,1.964l0,0.441Zm4.463,10.051c-1.194,0 -2.263,-0.205 -3.204,-0.612c-0.944,-0.409 -1.738,-0.985 -2.387,-1.728c-0.651,-0.743 -1.143,-1.639 -1.477,-2.686c-0.336,-1.047 -0.504,-2.199 -0.504,-3.456c0,-1.256 0.19,-2.403 0.567,-3.44c0.375,-1.035 0.893,-1.931 1.555,-2.685c0.659,-0.753 1.44,-1.335 2.338,-1.743c0.901,-0.408 1.886,-0.612 2.954,-0.612c1.089,0 2.069,0.187 2.938,0.564c0.869,0.376 1.602,0.907 2.198,1.586c0.598,0.682 1.057,1.492 1.382,2.435c0.324,0.942 0.488,1.969 0.488,3.079l0,0.754l-11.311,0l0,0.785c0,1.739 0.448,3.109 1.337,4.114c0.889,1.005 2.078,1.509 3.567,1.509c1.319,0 2.364,-0.262 3.14,-0.786c0.773,-0.522 1.381,-1.214 1.823,-2.072l1.099,0.69c-0.211,0.566 -0.498,1.105 -0.866,1.618c-0.366,0.513 -0.82,0.97 -1.365,1.366c-0.547,0.399 -1.174,0.718 -1.886,0.959c-0.711,0.24 -1.507,0.361 -2.386,0.361Z" style="fill:#6d6f71;fill-rule:nonzero;"/><path d="M9.565,113.31l6.805,0c1.808,0 3.211,-0.472 4.211,-1.416c0.999,-0.945 1.5,-2.221 1.5,-3.827l0,-2.173c0,-1.606 -0.501,-2.881 -1.5,-3.824c-1,-0.945 -2.403,-1.419 -4.211,-1.419l-6.805,0l0,12.659Zm0,-15.513l5.996,0c1.681,0 2.965,-0.429 3.854,-1.285c0.888,-0.856 1.333,-2.046 1.333,-3.569l0,-2.093c0,-1.524 -0.445,-2.713 -1.333,-3.571c-0.889,-0.854 -2.173,-1.283 -3.854,-1.283l-5.996,0l0,11.801Zm-9.565,15.799l3.523,0l0,-27.885l-3.523,0l0,-2.665l16.844,0c3.364,0 5.903,0.731 7.615,2.195c1.713,1.465 2.57,3.359 2.57,5.679c0,1.179 -0.19,2.22 -0.573,3.127c-0.38,0.907 -0.896,1.679 -1.545,2.314c-0.651,0.638 -1.389,1.155 -2.213,1.553c-0.825,0.398 -1.665,0.675 -2.523,0.835l0,0.237c0.889,0.094 1.817,0.316 2.784,0.665c0.968,0.347 1.858,0.853 2.666,1.518c0.809,0.665 1.466,1.479 1.974,2.443c0.507,0.967 0.763,2.113 0.763,3.442c0,2.879 -0.912,5.131 -2.737,6.762c-1.825,1.628 -4.323,2.443 -7.495,2.443l-18.13,0l0,-2.663Z" style="fill:#6d6f71;fill-rule:nonzero;"/><path d="M33.357,113.596l3.521,0l0,-27.885l-3.521,0l0,-2.665l26.123,0l0,8.471l-4.615,0l0,-5.521l-11.944,0l0,11.564l7.948,0l0,-3.333l3.33,0l0,9.613l-3.33,0l0,-3.331l-7.948,0l0,12.801l12.42,0l0,-6.186l4.615,0l0,9.135l-26.599,0l0,-2.663Z" style="fill:#6d6f71;fill-rule:nonzero;"/><path d="M70.663,113.596l3.996,0l0,-10.661l-9.42,-17.224l-2.476,0l0,-2.665l12.99,0l0,2.665l-3.9,0l7.186,13.56l0.189,0l7.233,-13.56l-3.903,0l0,-2.665l10.041,0l0,2.665l-2.475,0l-9.42,16.606l0,11.279l3.997,0l0,2.663l-14.038,0l0,-2.663Z" style="fill:#6d6f71;fill-rule:nonzero;"/><path d="M109.873,113.785c2.696,0 4.83,-0.888 6.398,-2.665c1.571,-1.776 2.357,-4.25 2.357,-7.423l0,-8.09c0,-3.172 -0.786,-5.644 -2.357,-7.422c-1.568,-1.777 -3.702,-2.665 -6.398,-2.665c-2.698,0 -4.833,0.888 -6.402,2.665c-1.569,1.778 -2.354,4.25 -2.354,7.422l0,8.09c0,3.173 0.785,5.647 2.354,7.423c1.569,1.777 3.704,2.665 6.402,2.665Zm0,3.046c-2.254,0 -4.332,-0.39 -6.235,-1.166c-1.903,-0.776 -3.538,-1.904 -4.901,-3.38c-1.364,-1.475 -2.427,-3.274 -3.188,-5.399c-0.761,-2.125 -1.142,-4.536 -1.142,-7.233c0,-2.696 0.381,-5.107 1.142,-7.234c0.761,-2.124 1.824,-3.925 3.188,-5.4c1.363,-1.475 2.998,-2.6 4.901,-3.378c1.903,-0.778 3.981,-1.166 6.235,-1.166c2.25,0 4.328,0.388 6.232,1.166c1.903,0.778 3.538,1.903 4.902,3.378c1.363,1.475 2.426,3.276 3.187,5.4c0.762,2.127 1.142,4.538 1.142,7.234c0,2.697 -0.38,5.108 -1.142,7.233c-0.761,2.125 -1.824,3.924 -3.187,5.399c-1.364,1.476 -2.999,2.604 -4.902,3.38c-1.904,0.776 -3.982,1.166 -6.232,1.166Z" style="fill:#6d6f71;fill-rule:nonzero;"/><path d="M130.094,113.596l3.523,0l0,-27.885l-3.523,0l0,-2.665l10.612,0l16.131,25.029l0.239,0l0,-22.364l-3.522,0l0,-2.665l10.278,0l0,2.665l-3.521,0l0,30.548l-5.139,0l-18.084,-27.979l-0.236,0l0,25.316l3.521,0l0,2.663l-10.279,0l0,-2.663Z" style="fill:#6d6f71;fill-rule:nonzero;"/><path d="M177.773,113.31l4.521,0c3.267,0 5.734,-0.849 7.401,-2.545c1.666,-1.699 2.497,-4.196 2.497,-7.496l0,-7.233c0,-3.299 -0.831,-5.797 -2.497,-7.494c-1.667,-1.698 -4.134,-2.546 -7.401,-2.546l-4.521,0l0,27.314Zm-9.563,0.286l3.521,0l0,-27.885l-3.521,0l0,-2.665l14.989,0c2.284,0 4.384,0.357 6.304,1.071c1.919,0.713 3.577,1.77 4.972,3.162c1.398,1.398 2.484,3.136 3.262,5.212c0.776,2.078 1.165,4.466 1.165,7.162c0,2.728 -0.389,5.122 -1.165,7.185c-0.778,2.062 -1.864,3.791 -3.262,5.186c-1.395,1.397 -3.053,2.452 -4.972,3.165c-1.92,0.714 -4.02,1.07 -6.304,1.07l-14.989,0l0,-2.663Z" style="fill:#6d6f71;fill-rule:nonzero;"/><path d="M55.981,148.479l6.734,0c1.533,0 2.734,-0.435 3.606,-1.308c0.872,-0.87 1.307,-2.005 1.307,-3.405l0,-1.744c0,-1.399 -0.435,-2.537 -1.307,-3.407c-0.872,-0.871 -2.073,-1.307 -3.606,-1.307l-6.734,0l0,11.171Zm0,-13.233l6.102,0c1.398,0 2.496,-0.401 3.287,-1.207c0.794,-0.805 1.189,-1.842 1.189,-3.109l0,-1.665c0,-1.268 -0.395,-2.304 -1.189,-3.11c-0.791,-0.806 -1.889,-1.209 -3.287,-1.209l-6.102,0l0,10.3Zm-6.736,13.391l3.011,0l0,-23.85l-3.011,0l0,-1.901l13.588,0c2.377,0 4.247,0.601 5.608,1.803c1.358,1.201 2.04,2.781 2.04,4.734c0,0.976 -0.152,1.857 -0.455,2.636c-0.304,0.779 -0.714,1.446 -1.229,1.999c-0.514,0.556 -1.096,0.998 -1.743,1.328c-0.648,0.331 -1.301,0.548 -1.962,0.654l0,0.159c0.688,0.051 1.413,0.217 2.179,0.494c0.768,0.278 1.467,0.694 2.101,1.247c0.634,0.555 1.155,1.237 1.565,2.041c0.409,0.807 0.612,1.764 0.612,2.872c0,1.165 -0.183,2.219 -0.552,3.169c-0.372,0.953 -0.893,1.764 -1.566,2.438c-0.673,0.674 -1.467,1.189 -2.377,1.545c-0.911,0.356 -1.896,0.535 -2.952,0.535l-14.857,0l0,-1.903Z" style="fill:#939598;fill-rule:nonzero;"/><path d="M55.981,148.479l6.734,0c1.533,0 2.734,-0.435 3.606,-1.308c0.872,-0.87 1.307,-2.005 1.307,-3.405l0,-1.744c0,-1.399 -0.435,-2.537 -1.307,-3.407c-0.872,-0.871 -2.073,-1.307 -3.606,-1.307l-6.734,0l0,11.171Zm0,-13.233l6.102,0c1.398,0 2.496,-0.401 3.287,-1.207c0.794,-0.805 1.189,-1.842 1.189,-3.109l0,-1.665c0,-1.268 -0.395,-2.304 -1.189,-3.11c-0.791,-0.806 -1.889,-1.209 -3.287,-1.209l-6.102,0l0,10.3Zm-6.736,13.391l3.011,0l0,-23.85l-3.011,0l0,-1.901l13.588,0c2.377,0 4.247,0.601 5.608,1.803c1.358,1.201 2.04,2.781 2.04,4.734c0,0.976 -0.152,1.857 -0.455,2.636c-0.304,0.779 -0.714,1.446 -1.229,1.999c-0.514,0.556 -1.096,0.998 -1.743,1.328c-0.648,0.331 -1.301,0.548 -1.962,0.654l0,0.159c0.688,0.051 1.413,0.217 2.179,0.494c0.768,0.278 1.467,0.694 2.101,1.247c0.634,0.555 1.155,1.237 1.565,2.041c0.409,0.807 0.612,1.764 0.612,2.872c0,1.165 -0.183,2.219 -0.552,3.169c-0.372,0.953 -0.893,1.764 -1.566,2.438c-0.673,0.674 -1.467,1.189 -2.377,1.545c-0.911,0.356 -1.896,0.535 -2.952,0.535l-14.857,0l0,-1.903Z" style="fill:none;stroke:#939598;stroke-width:0.73px;"/><path d="M83.119,135.802l6.181,0c1.399,0 2.483,-0.429 3.248,-1.288c0.766,-0.859 1.149,-1.921 1.149,-3.19l0,-1.901c0,-1.268 -0.383,-2.331 -1.149,-3.19c-0.765,-0.856 -1.849,-1.287 -3.248,-1.287l-6.181,0l0,10.856Zm-6.735,12.835l3.011,0l0,-23.85l-3.011,0l0,-1.901l13.272,0c2.508,0 4.464,0.607 5.864,1.823c1.399,1.215 2.1,3.05 2.1,5.506c0,1.85 -0.522,3.401 -1.566,4.656c-1.043,1.255 -2.581,2.079 -4.615,2.476l4.676,8.479c0.527,0.977 1.134,1.69 1.822,2.138c0.686,0.45 1.531,0.673 2.534,0.673l0.318,0l0,1.903l-2.694,0c-0.793,0 -1.461,-0.073 -2.002,-0.219c-0.541,-0.143 -1.016,-0.368 -1.425,-0.672c-0.411,-0.304 -0.772,-0.68 -1.088,-1.13c-0.318,-0.449 -0.634,-0.976 -0.952,-1.584l-4.954,-9.074l-4.555,0l0,10.776l3.011,0l0,1.903l-9.746,0l0,-1.903Z" style="fill:#939598;fill-rule:nonzero;"/><path d="M83.119,135.802l6.181,0c1.399,0 2.483,-0.429 3.248,-1.288c0.766,-0.859 1.149,-1.921 1.149,-3.19l0,-1.901c0,-1.268 -0.383,-2.331 -1.149,-3.19c-0.765,-0.856 -1.849,-1.287 -3.248,-1.287l-6.181,0l0,10.856Zm-6.735,12.835l3.011,0l0,-23.85l-3.011,0l0,-1.901l13.272,0c2.508,0 4.464,0.607 5.864,1.823c1.399,1.215 2.1,3.05 2.1,5.506c0,1.85 -0.522,3.401 -1.566,4.656c-1.043,1.255 -2.581,2.079 -4.615,2.476l4.676,8.479c0.527,0.977 1.134,1.69 1.822,2.138c0.686,0.45 1.531,0.673 2.534,0.673l0.318,0l0,1.903l-2.694,0c-0.793,0 -1.461,-0.073 -2.002,-0.219c-0.541,-0.143 -1.016,-0.368 -1.425,-0.672c-0.411,-0.304 -0.772,-0.68 -1.088,-1.13c-0.318,-0.449 -0.634,-0.976 -0.952,-1.584l-4.954,-9.074l-4.555,0l0,10.776l3.011,0l0,1.903l-9.746,0l0,-1.903Z" style="fill:none;stroke:#939598;stroke-width:0.73px;"/><path d="M103.641,148.637l3.011,0l0,-23.85l-3.011,0l0,-1.901l9.746,0l0,1.901l-3.011,0l0,23.85l3.011,0l0,1.903l-9.746,0l0,-1.903Z" style="fill:#939598;fill-rule:nonzero;"/><path d="M103.641,148.637l3.011,0l0,-23.85l-3.011,0l0,-1.901l9.746,0l0,1.901l-3.011,0l0,23.85l3.011,0l0,1.903l-9.746,0l0,-1.903Z" style="fill:none;stroke:#939598;stroke-width:0.73px;"/><path d="M124.48,148.479l4.794,0c1.347,0 2.56,-0.224 3.645,-0.672c1.081,-0.449 2.013,-1.083 2.792,-1.903c0.779,-0.817 1.373,-1.795 1.785,-2.931c0.408,-1.136 0.612,-2.404 0.612,-3.803l0,-4.913c0,-1.374 -0.204,-2.635 -0.612,-3.783c-0.412,-1.15 -1.006,-2.134 -1.785,-2.954c-0.779,-0.817 -1.711,-1.451 -2.792,-1.901c-1.085,-0.449 -2.298,-0.673 -3.645,-0.673l-4.794,0l0,23.533Zm-6.734,0.158l3.009,0l0,-23.85l-3.009,0l0,-1.901l11.924,0c1.849,0 3.546,0.284 5.091,0.851c1.546,0.57 2.871,1.427 3.981,2.575c1.11,1.15 1.974,2.589 2.595,4.32c0.621,1.729 0.932,3.757 0.932,6.082c0,2.324 -0.311,4.351 -0.932,6.082c-0.621,1.728 -1.485,3.168 -2.595,4.317c-1.11,1.15 -2.435,2.007 -3.981,2.574c-1.545,0.57 -3.242,0.853 -5.091,0.853l-11.924,0l0,-1.903Z" style="fill:#939598;fill-rule:nonzero;"/><path d="M124.48,148.479l4.794,0c1.347,0 2.56,-0.224 3.645,-0.672c1.081,-0.449 2.013,-1.083 2.792,-1.903c0.779,-0.817 1.373,-1.795 1.785,-2.931c0.408,-1.136 0.612,-2.404 0.612,-3.803l0,-4.913c0,-1.374 -0.204,-2.635 -0.612,-3.783c-0.412,-1.15 -1.006,-2.134 -1.785,-2.954c-0.779,-0.817 -1.711,-1.451 -2.792,-1.901c-1.085,-0.449 -2.298,-0.673 -3.645,-0.673l-4.794,0l0,23.533Zm-6.734,0.158l3.009,0l0,-23.85l-3.009,0l0,-1.901l11.924,0c1.849,0 3.546,0.284 5.091,0.851c1.546,0.57 2.871,1.427 3.981,2.575c1.11,1.15 1.974,2.589 2.595,4.32c0.621,1.729 0.932,3.757 0.932,6.082c0,2.324 -0.311,4.351 -0.932,6.082c-0.621,1.728 -1.485,3.168 -2.595,4.317c-1.11,1.15 -2.435,2.007 -3.981,2.574c-1.545,0.57 -3.242,0.853 -5.091,0.853l-11.924,0l0,-1.903Z" style="fill:none;stroke:#939598;stroke-width:0.73px;"/><path d="M158.394,151.015c-1.771,0 -3.375,-0.33 -4.815,-0.99c-1.44,-0.66 -2.674,-1.606 -3.705,-2.834c-1.028,-1.227 -1.828,-2.725 -2.396,-4.495c-0.568,-1.769 -0.852,-3.764 -0.852,-5.982c0,-2.299 0.284,-4.339 0.852,-6.122c0.568,-1.783 1.381,-3.275 2.436,-4.478c1.057,-1.2 2.331,-2.118 3.824,-2.753c1.491,-0.634 3.162,-0.951 5.011,-0.951c2.166,0 3.836,0.291 5.012,0.872c1.174,0.582 1.935,1.269 2.278,2.061l0.199,0l0,-2.457l3.05,0l0,8.082l-3.05,0l0,-1.862c0,-1.479 -0.621,-2.595 -1.863,-3.348c-1.241,-0.753 -2.946,-1.129 -5.111,-1.129c-1.479,0 -2.747,0.225 -3.804,0.674c-1.056,0.449 -1.932,1.09 -2.633,1.923c-0.701,0.831 -1.215,1.822 -1.544,2.969c-0.333,1.149 -0.496,2.411 -0.496,3.783l0,5.389c0,1.375 0.19,2.63 0.574,3.765c0.382,1.136 0.925,2.106 1.623,2.911c0.701,0.806 1.546,1.426 2.537,1.862c0.991,0.437 2.093,0.654 3.308,0.654c1.03,0 1.973,-0.124 2.833,-0.376c0.857,-0.25 1.604,-0.628 2.237,-1.129c0.636,-0.501 1.129,-1.111 1.487,-1.823c0.358,-0.712 0.535,-1.545 0.535,-2.498l0,-3.683l-4.954,0l0,-1.902l11.213,0l0,1.902l-2.536,0l0,11.49l-1.386,0l-2.099,-3.764l-0.16,0c-0.21,0.502 -0.521,1.005 -0.93,1.506c-0.41,0.501 -0.932,0.956 -1.565,1.367c-0.634,0.41 -1.375,0.74 -2.219,0.99c-0.845,0.251 -1.809,0.376 -2.891,0.376Z" style="fill:#939598;fill-rule:nonzero;"/><path d="M158.394,151.015c-1.771,0 -3.375,-0.33 -4.815,-0.99c-1.44,-0.66 -2.674,-1.606 -3.705,-2.834c-1.028,-1.227 -1.828,-2.725 -2.396,-4.495c-0.568,-1.769 -0.852,-3.764 -0.852,-5.982c0,-2.299 0.284,-4.339 0.852,-6.122c0.568,-1.783 1.381,-3.275 2.436,-4.478c1.057,-1.2 2.331,-2.118 3.824,-2.753c1.491,-0.634 3.162,-0.951 5.011,-0.951c2.166,0 3.836,0.291 5.012,0.872c1.174,0.582 1.935,1.269 2.278,2.061l0.199,0l0,-2.457l3.05,0l0,8.082l-3.05,0l0,-1.862c0,-1.479 -0.621,-2.595 -1.863,-3.348c-1.241,-0.753 -2.946,-1.129 -5.111,-1.129c-1.479,0 -2.747,0.225 -3.804,0.674c-1.056,0.449 -1.932,1.09 -2.633,1.923c-0.701,0.831 -1.215,1.822 -1.544,2.969c-0.333,1.149 -0.496,2.411 -0.496,3.783l0,5.389c0,1.375 0.19,2.63 0.574,3.765c0.382,1.136 0.925,2.106 1.623,2.911c0.701,0.806 1.546,1.426 2.537,1.862c0.991,0.437 2.093,0.654 3.308,0.654c1.03,0 1.973,-0.124 2.833,-0.376c0.857,-0.25 1.604,-0.628 2.237,-1.129c0.636,-0.501 1.129,-1.111 1.487,-1.823c0.358,-0.712 0.535,-1.545 0.535,-2.498l0,-3.683l-4.954,0l0,-1.902l11.213,0l0,1.902l-2.536,0l0,11.49l-1.386,0l-2.099,-3.764l-0.16,0c-0.21,0.502 -0.521,1.005 -0.93,1.506c-0.41,0.501 -0.932,0.956 -1.565,1.367c-0.634,0.41 -1.375,0.74 -2.219,0.99c-0.845,0.251 -1.809,0.376 -2.891,0.376Z" style="fill:none;stroke:#939598;stroke-width:0.73px;"/><path d="M175.943,148.637l3.013,0l0,-23.85l-3.013,0l0,-1.901l21.117,0l0,6.736l-3.051,0l0,-4.676l-11.33,0l0,10.341l7.805,0l0,-3.169l2.535,0l0,8.399l-2.535,0l0,-3.17l-7.805,0l0,11.132l11.727,0l0,-5.071l3.05,0l0,7.132l-21.513,0l0,-1.903Z" style="fill:#939598;fill-rule:nonzero;"/><path d="M175.943,148.637l3.013,0l0,-23.85l-3.013,0l0,-1.901l21.117,0l0,6.736l-3.051,0l0,-4.676l-11.33,0l0,10.341l7.805,0l0,-3.169l2.535,0l0,8.399l-2.535,0l0,-3.17l-7.805,0l0,11.132l11.727,0l0,-5.071l3.05,0l0,7.132l-21.513,0l0,-1.903Z" style="fill:none;stroke:#939598;stroke-width:0.73px;"/><rect x="0" y="69.872" width="197.478" height="4.086" style="fill:#939598;fill-rule:nonzero;"/><rect x="0.058" y="159.468" width="197.478" height="4.086" style="fill:#939598;fill-rule:nonzero;"/></svg>